<svg width="24" height="24" viewBox="0 0 24 24" fill="none" xmlns="http://www.w3.org/2000/svg">
<path d="M0 24H24V-2.86102e-05H0V24Z" fill="#006FCF"/>
<path d="M8.69409 20.2023L18.1839 20.2224L19.6743 18.5597L21.1754 20.2161H24V17.7902L22.2309 15.8824L24 13.9919V11.6164L8.69409 11.6027V20.2023Z" fill="white"/>
<path fill-rule="evenodd" clip-rule="evenodd" d="M9.71655 19.2595V12.5491H15.4063V14.0949H11.5587V15.1442H15.3146V16.6644H11.5587V17.6951H15.4063V19.2595L9.71655 19.2595Z" fill="#006FCF"/>
<path d="M21.6677 12.5492L19.7384 14.6761L17.8146 12.5492H15.3777L18.5261 15.9005L15.3777 19.2595H17.7484L19.6863 17.1113L21.6442 19.2595H23.9999V19.1642L20.9186 15.9005L23.9999 12.602V12.5492H21.6677Z" fill="#006FCF"/>
<path d="M20.5218 3.96996L19.7337 6.17457L18.9482 3.96996H14.3934V6.91246L13.0974 3.96996H9.40793L5.61865 12.5696H24V3.96996H20.5218Z" fill="white"/>
<path fill-rule="evenodd" clip-rule="evenodd" d="M10.3625 8.76158L11.2554 6.62721L12.1477 8.76158H10.3625ZM10.1066 4.90416L7.12915 11.6089H9.17132L9.73299 10.2663H12.7767L13.338 11.6089H15.431L12.4659 4.90416H10.1066Z" fill="#006FCF"/>
<path d="M15.4031 11.6076L17.2086 11.6077V7.00217L18.9214 11.6077H20.5442L22.2223 7.01781V11.6233L24 11.6077V4.90295H21.2373L19.7507 9.03473L18.2737 4.91284L15.4031 4.90292V11.6076Z" fill="#006FCF"/>
</svg>
