<svg width="58" height="24" viewBox="0 0 58 24" fill="none" xmlns="http://www.w3.org/2000/svg">
<g clip-path="url(#clip0_1_4628)">
<path d="M27.2426 11.7394V18.4421H25.1145V1.88568H30.7556C32.1164 1.85672 33.4313 2.37306 34.4085 3.31886C35.3977 4.20917 35.9551 5.48311 35.9334 6.81255C35.9623 8.15163 35.405 9.43523 34.4085 10.328C33.4217 11.2689 32.2032 11.7394 30.7556 11.737L27.2426 11.7394ZM27.2426 3.92447V9.70546H30.8086C31.6 9.72958 32.3625 9.41834 32.9126 8.84892C34.0297 7.76318 34.0562 5.97532 32.9681 4.85821C32.9488 4.8389 32.9319 4.8196 32.9126 4.80271C32.3697 4.22124 31.6024 3.90275 30.8086 3.92447H27.2426ZM40.8361 6.74499C42.4092 6.74499 43.6494 7.16481 44.559 8.00446C45.4686 8.8441 45.9222 9.9974 45.9222 11.4595V18.4421H43.8882V16.869H43.7966C42.9159 18.1646 41.7433 18.8112 40.2812 18.8112C39.0338 18.8112 37.989 18.4421 37.1494 17.7014C36.3339 17.0137 35.8706 15.9955 35.8899 14.9267C35.8899 13.7541 36.3339 12.8228 37.2194 12.1303C38.1048 11.4378 39.2871 11.0904 40.7685 11.0904C42.0304 11.0904 43.0727 11.322 43.8882 11.7828V11.2955C43.8931 10.5668 43.5698 9.87676 43.01 9.41351C42.4478 8.90683 41.7143 8.62936 40.9567 8.63901C39.7697 8.63901 38.8287 9.14087 38.1362 10.1422L36.2639 8.96232C37.2917 7.4833 38.8166 6.74499 40.8361 6.74499ZM38.0831 14.9749C38.0807 15.5251 38.3437 16.0414 38.7877 16.3623C39.2581 16.7314 39.842 16.9293 40.4404 16.9172C41.338 16.9148 42.1993 16.5577 42.8339 15.9232C43.5384 15.2596 43.8907 14.4827 43.8907 13.5876C43.2271 13.0592 42.3031 12.7938 41.116 12.7938C40.2522 12.7938 39.5308 13.0013 38.9541 13.4187C38.3727 13.8434 38.0831 14.3573 38.0831 14.9749ZM57.6 7.11414L50.4992 23.4365H48.3036L50.9384 17.7255L46.2672 7.11414H48.5787L51.9541 15.2524H52L55.2838 7.11414H57.6Z" fill="#5F6368"/>
<path d="M18.6457 10.2917C18.6457 9.64269 18.5926 8.99607 18.4817 8.35669H9.51099V12.0193H14.6478C14.4354 13.2015 13.7502 14.2463 12.7489 14.9098V17.2888H15.8155C17.6106 15.636 18.6457 13.1871 18.6457 10.2917Z" fill="#4285F4"/>
<path d="M9.51144 19.5881C12.0786 19.5881 14.2405 18.7461 15.816 17.2912L12.7494 14.9122C11.8953 15.4913 10.7974 15.8218 9.51144 15.8218C7.03111 15.8218 4.92477 14.1498 4.17198 11.8962H1.01367V14.3476C2.62781 17.5614 5.91642 19.5881 9.51144 19.5881Z" fill="#34A853"/>
<path d="M4.17167 11.8962C3.77357 10.7163 3.77357 9.43517 4.17167 8.25533V5.80396H1.01336C-0.337787 8.49178 -0.337787 11.6597 1.01336 14.3476L4.17167 11.8962Z" fill="#FBBC04"/>
<path d="M9.51144 4.3299C10.8674 4.30818 12.1775 4.81969 13.1595 5.75584L15.8763 3.04148C14.1536 1.42492 11.8735 0.537026 9.51144 0.563567C5.91642 0.563567 2.62781 2.5927 1.01367 5.8041L4.17198 8.25547C4.92477 6.00194 7.03111 4.3299 9.51144 4.3299Z" fill="#EA4335"/>
</g>
<defs>
<clipPath id="clip0_1_4628">
<rect width="57.6" height="24" fill="white"/>
</clipPath>
</defs>
</svg>
