<svg width="26" height="16" viewBox="0 0 26 16" fill="none" xmlns="http://www.w3.org/2000/svg">
<g clip-path="url(#clip0_1_4649)">
<path d="M16.4443 1.71094H9.44434V14.2887H16.4443V1.71094Z" fill="#FF5F00"/>
<path d="M9.88879 7.9999C9.88879 5.55545 11.0221 3.22212 12.9332 1.71101C9.46656 -1.02233 4.44434 -0.422326 1.71101 3.06656C-1.02233 6.53323 -0.422326 11.5555 3.06656 14.2888C5.97767 16.5777 10.0443 16.5777 12.9555 14.2888C11.0221 12.7777 9.88879 10.4443 9.88879 7.9999Z" fill="#EB001B"/>
<path d="M25.8889 7.9999C25.8889 12.4221 22.3111 15.9999 17.8889 15.9999C16.0889 15.9999 14.3556 15.3999 12.9556 14.2888C16.4222 11.5555 17.0222 6.53323 14.2889 3.04434C13.8889 2.55545 13.4445 2.08879 12.9556 1.71101C16.4222 -1.02233 21.4667 -0.422326 24.1778 3.06656C25.2889 4.46656 25.8889 6.1999 25.8889 7.9999Z" fill="#F79E1B"/>
<path d="M25.1333 12.9554V12.6887H25.2444V12.6443H24.9778V12.6887H25.0889V12.9554H25.1333ZM25.6444 12.9554V12.6443H25.5556L25.4667 12.8665L25.3778 12.6443H25.2889V12.9554H25.3556V12.711L25.4444 12.911H25.5111L25.6 12.711V12.9554H25.6444Z" fill="#F79E1B"/>
</g>
<defs>
<clipPath id="clip0_1_4649">
<rect width="25.8889" height="16" fill="white"/>
</clipPath>
</defs>
</svg>
