<svg width="70" height="32" viewBox="0 0 70 32" fill="none" xmlns="http://www.w3.org/2000/svg">
<path fill-rule="evenodd" clip-rule="evenodd" d="M61.8459 16.1316C61.8459 12.4498 59.9912 9.54468 56.4463 9.54468C52.8865 9.54468 50.7327 12.4498 50.7327 16.1029C50.7327 20.4319 53.2754 22.6179 56.925 22.6179C58.7049 22.6179 60.051 22.2296 61.0681 21.6831V18.8067C60.051 19.2957 58.8844 19.5977 57.4036 19.5977C55.9527 19.5977 54.6664 19.1087 54.5019 17.4116H61.816C61.816 17.2247 61.8459 16.4768 61.8459 16.1316ZM54.457 14.7654C54.457 13.1402 55.4891 12.4642 56.4314 12.4642C57.3438 12.4642 58.316 13.1402 58.316 14.7654H54.457Z" fill="#635BFF"/>
<path fill-rule="evenodd" clip-rule="evenodd" d="M44.9591 9.54468C43.4933 9.54468 42.551 10.2063 42.0275 10.6665L41.8331 9.77479H38.5425V26.5442L42.2818 25.782L42.2968 21.7119C42.8352 22.0858 43.6279 22.6179 44.9442 22.6179C47.6215 22.6179 50.0596 20.5469 50.0596 15.9878C50.0446 11.817 47.5767 9.54468 44.9591 9.54468ZM44.0617 19.4539C43.1792 19.4539 42.6557 19.1519 42.2968 18.7779L42.2818 13.4422C42.6707 13.0251 43.2091 12.7375 44.0617 12.7375C45.4228 12.7375 46.3651 14.2045 46.3651 16.0885C46.3651 18.0157 45.4378 19.4539 44.0617 19.4539Z" fill="#635BFF"/>
<path fill-rule="evenodd" clip-rule="evenodd" d="M33.3972 8.69618L37.1515 7.91955V5L33.3972 5.76225V8.69618Z" fill="#635BFF"/>
<path d="M37.1515 9.78918H33.3972V22.3735H37.1515V9.78918Z" fill="#635BFF"/>
<path fill-rule="evenodd" clip-rule="evenodd" d="M29.3736 10.8534L29.1343 9.78916H25.9036V22.3734H29.6429V13.8449C30.5254 12.7375 32.0211 12.9388 32.4848 13.097V9.78916C32.0061 9.61658 30.2561 9.30017 29.3736 10.8534Z" fill="#635BFF"/>
<path fill-rule="evenodd" clip-rule="evenodd" d="M21.895 6.66833L18.2454 7.4162L18.2305 18.9362C18.2305 21.0647 19.8907 22.6324 22.1044 22.6324C23.3309 22.6324 24.2283 22.4167 24.7219 22.1578V19.2382C24.2433 19.4252 21.88 20.0868 21.88 17.9582V12.8526H24.7219V9.78923H21.88L21.895 6.66833Z" fill="#635BFF"/>
<path fill-rule="evenodd" clip-rule="evenodd" d="M11.7839 13.4422C11.7839 12.8813 12.2626 12.6656 13.0553 12.6656C14.1921 12.6656 15.628 12.9964 16.7647 13.586V10.2063C15.5233 9.73164 14.2968 9.54468 13.0553 9.54468C10.019 9.54468 7.99976 11.0692 7.99976 13.6148C7.99976 17.5842 13.6835 16.9514 13.6835 18.6629C13.6835 19.3245 13.0852 19.5402 12.2476 19.5402C11.0062 19.5402 9.4207 19.0512 8.16429 18.3896V21.8125C9.55531 22.3878 10.9613 22.6323 12.2476 22.6323C15.3587 22.6323 17.4976 21.151 17.4976 18.5766C17.4827 14.2907 11.7839 15.053 11.7839 13.4422Z" fill="#635BFF"/>
</svg>
