<svg width="580" height="314" viewBox="0 0 580 314" fill="none" xmlns="http://www.w3.org/2000/svg">
<g clip-path="url(#clip0_1_4793)">
<rect x="339" y="241" width="8.06" height="4.14" transform="rotate(55 339 241)" fill="#4BC8EF" fill-opacity="0.9"/>
<rect x="222" y="66" width="9.06" height="6.14" transform="rotate(168 222 66)" fill="#F54721"/>
<rect x="514" y="86" width="18.06" height="6.14" transform="rotate(97 514 86)" fill="#F54721" fill-opacity="0.9"/>
<rect x="160" y="261" width="7.06" height="4.14" transform="rotate(155 160 261)" fill="#03A3F5"/>
<rect x="490" y="99" width="15.06" height="3.14" transform="rotate(53 490 99)" fill="#FC9E1C" fill-opacity="0.65"/>
<rect x="450" y="169" width="4.06" height="3.14" transform="rotate(142 450 169)" fill="#C9FCBE" fill-opacity="0.85"/>
<rect x="451" y="7" width="9.06" height="6.14" transform="rotate(-164 451 7)" fill="#480CA7" fill-opacity="0.9"/>
<rect x="336" y="13" width="18.06" height="5.14" transform="rotate(80 336 13)" fill="#F62584" fill-opacity="0.75"/>
<rect x="490" y="310" width="13.06" height="5.14" transform="rotate(-156 490 310)" fill="#F54721"/>
<rect x="358" y="72" width="13.06" height="5.14" transform="rotate(-33 358 72)" fill="#BA3E03" fill-opacity="0.65"/>
<rect x="176" y="215" width="15.06" height="6.14" transform="rotate(-32 176 215)" fill="#4BC8EF"/>
<rect x="111" y="271" width="11.06" height="4.14" transform="rotate(-67 111 271)" fill="#C9FCBE" fill-opacity="0.35"/>
<rect x="18" y="24" width="19.06" height="5.14" transform="rotate(-136 18 24)" fill="#F54721" fill-opacity="0.6"/>
<rect x="25" y="21" width="23.06" height="3.14" transform="rotate(167 25 21)" fill="#9AF5FC" fill-opacity="0.45"/>
<rect x="221" y="176" width="8.06" height="6.14" transform="rotate(15 221 176)" fill="#FFED36" fill-opacity="0.65"/>
<circle cx="260.45" cy="51.45" r="1.45" fill="#FF21FB" fill-opacity="0.75"/>
<circle cx="548.95" cy="91.95" r="2.95" fill="#F54721" fill-opacity="0.9"/>
<circle cx="124.45" cy="107.45" r="3.45" fill="#F62584" fill-opacity="0.6"/>
<circle cx="112.95" cy="315.95" r="3.95" fill="#03A3F5" fill-opacity="0.85"/>
<circle cx="34.45" cy="98.45" r="2.45" fill="#4BC8EF" fill-opacity="0.85"/>
<circle cx="101.95" cy="155.95" r="1.95" fill="#FF21FB" fill-opacity="0.65"/>
<circle cx="340.95" cy="267.95" r="1.95" fill="#755FFE" fill-opacity="0.65"/>
<circle cx="217.95" cy="25.95" r="2.95" fill="#BA3E03" fill-opacity="0.35"/>
<circle cx="305.45" cy="230.45" r="2.45" fill="#DCBCFA" fill-opacity="0.65"/>
<circle cx="544.45" cy="167.45" r="1.45" fill="#DCBCFA" fill-opacity="0.9"/>
<circle cx="178.95" cy="52.95" r="1.95" fill="#4BC8EF" fill-opacity="0.65"/>
<circle cx="570.45" cy="137.45" r="2.45" fill="#F62584" fill-opacity="0.9"/>
<circle cx="514.45" cy="193.45" r="1.45" fill="#C9FCBE"/>
<circle cx="566.45" cy="107.45" r="3.45" fill="#FF21FB"/>
<circle cx="494.45" cy="17.45" r="1.45" fill="#480CA7" fill-opacity="0.6"/>
<path d="M559.284 132.12L562.568 133L563.448 136.284L561.044 138.688L557.76 137.808L556.88 134.524L559.284 132.12Z" fill="#C9FCBE" fill-opacity="0.85"/>
<path d="M229.274 201.848L232.663 199.73L235.725 202.299L234.228 206.005L230.241 205.726L229.274 201.848Z" fill="#F62584" fill-opacity="0.85"/>
<path d="M521.343 277.991L527.251 281.266L521.461 284.745L521.343 277.991Z" fill="#9AF5FC" fill-opacity="0.6"/>
<path d="M488.216 217.943L484.467 216.869L483.523 213.084L486.329 210.375L490.078 211.45L491.021 215.234L488.216 217.943Z" fill="#FFED36" fill-opacity="0.85"/>
<path d="M419.809 298.512L417.546 289.436L426.537 292.014L419.809 298.512Z" fill="#FFED36" fill-opacity="0.45"/>
<path d="M220.666 116.665L215.667 118.996L213.337 113.997L218.335 111.666L220.666 116.665Z" fill="#4BC8EF" fill-opacity="0.6"/>
<path d="M97.4194 146.231L102.585 145.96L104.439 150.789L100.419 154.044L96.0807 151.227L97.4194 146.231Z" fill="#BA3E03" fill-opacity="0.35"/>
<path d="M435.395 61.8221L438.969 65.0395L435.751 68.6127L432.178 65.3953L435.395 61.8221Z" fill="#9DED1A" fill-opacity="0.35"/>
<path d="M333.773 219.532L340.709 219.532L342.852 226.128L337.241 230.205L331.63 226.128L333.773 219.532Z" fill="#DCBCFA" fill-opacity="0.45"/>
<path d="M56.1156 76.2488L58.3783 67.1736L65.1063 73.6708L56.1156 76.2488Z" fill="#FFED36" fill-opacity="0.9"/>
<path d="M462.507 244.988L462.827 249.561L458.576 251.279L455.629 247.766L458.058 243.878L462.507 244.988Z" fill="#BA3E03" fill-opacity="0.65"/>
<path d="M340.553 180.153L342.456 177.965L345.303 178.518L346.247 181.26L344.344 183.449L341.497 182.895L340.553 180.153Z" fill="#480CA7" fill-opacity="0.35"/>
<path d="M384.272 276.11L390.343 273.148L389.872 279.887L384.272 276.11Z" fill="#9DED1A" fill-opacity="0.75"/>
<path d="M471.7 6.94449L471.282 10.9195L467.373 11.7505L465.374 8.28909L468.049 5.31878L471.7 6.94449Z" fill="#DCBCFA" fill-opacity="0.85"/>
<path d="M278.876 34.7292L278.672 30.8345L281.943 28.7104L285.418 30.481L285.622 34.3757L282.351 36.4997L278.876 34.7292Z" fill="#480CA7" fill-opacity="0.75"/>
<path d="M165.602 198.359L167.804 196.576L166.789 193.931L169.165 195.474L171.367 193.691L170.634 196.428L173.01 197.971L170.181 198.119L169.447 200.856L168.432 198.211L165.602 198.359Z" fill="#9DED1A" fill-opacity="0.35"/>
<path d="M283.648 149.026L286.264 149.426L288.27 147.701L287.87 150.317L289.596 152.323L286.98 151.923L284.974 153.648L285.374 151.033L283.648 149.026Z" fill="#755FFE" fill-opacity="0.45"/>
<path d="M530.465 62.7679L526.601 62.0866L524.759 65.5507L524.213 61.6656L520.349 60.9843L523.876 59.2644L523.33 55.3793L526.055 58.2015L529.581 56.4816L527.739 59.9457L530.465 62.7679Z" fill="#480CA7" fill-opacity="0.9"/>
<path d="M460.34 153.148L461.714 150.669L459.781 148.597L462.563 149.138L463.937 146.66L464.282 149.472L467.063 150.013L464.495 151.21L464.841 154.023L462.908 151.95L460.34 153.148Z" fill="#FC9E1C" fill-opacity="0.75"/>
<path d="M265.105 292.204L264.225 289.637L261.63 290.434L263.414 288.387L261.426 286.539L264.09 287.06L264.697 284.415L265.578 286.982L268.172 286.185L266.389 288.231L268.376 290.08L265.713 289.559L265.105 292.204Z" fill="#FF21FB" fill-opacity="0.9"/>
<path d="M424.403 239.155L420.949 238.294L419.063 241.313L418.814 237.762L415.36 236.901L418.661 235.567L418.412 232.016L420.701 234.743L424.002 233.409L422.115 236.428L424.403 239.155Z" fill="#F62584"/>
<path d="M257.906 100.601L261.615 99.3235L261.547 95.4008L263.908 98.5341L267.618 97.2568L265.367 100.471L267.728 103.604L263.976 102.457L261.726 105.671L261.658 101.748L257.906 100.601Z" fill="#480CA7" fill-opacity="0.9"/>
<path d="M515.115 39.6601L514.6 36.9952L511.92 37.4231L513.971 35.6451L512.26 33.538L514.825 34.4248L515.795 31.8898L516.309 34.5547L518.989 34.1267L516.939 35.9048L518.649 38.0119L516.084 37.125L515.115 39.6601Z" fill="#FF21FB" fill-opacity="0.35"/>
<path d="M228.845 222.597L226.313 220.312L223.948 222.768L224.661 219.433L221.351 218.612L224.595 217.562L223.651 214.286L226.183 216.571L228.548 214.115L227.835 217.449L231.145 218.27L227.901 219.32L228.845 222.597Z" fill="#9AF5FC" fill-opacity="0.75"/>
<path d="M151.66 87.1477L154.46 88.3188L157.172 86.9552L156.001 89.7555L157.364 92.4673L154.564 91.2963L151.852 92.6598L153.023 89.8595L151.66 87.1477Z" fill="#480CA7" fill-opacity="0.65"/>
<path d="M421.84 87.7665L422.251 91.1517L425.648 90.8502L422.922 92.899L424.881 95.6899L421.744 94.3535L420.307 97.4459L419.895 94.0607L416.499 94.3622L419.225 92.3134L417.265 89.5225L420.402 90.8589L421.84 87.7665Z" fill="#BA3E03"/>
<path d="M411.154 140.603L414.227 139.722L414.338 136.527L416.126 139.177L419.199 138.296L417.231 140.815L419.018 143.465L416.014 142.372L414.046 144.891L414.158 141.696L411.154 140.603Z" fill="#FF21FB" fill-opacity="0.45"/>
<path d="M539.404 267.596L541.808 268.701L544.212 267.596L543.107 270L544.212 272.404L541.808 271.299L539.404 272.404L540.51 270L539.404 267.596Z" fill="#DCBCFA"/>
<path d="M55.0768 170.601L58.1339 169.666L58.1897 166.47L60.0233 169.088L63.0804 168.154L61.1565 170.707L62.9901 173.325L59.9675 172.285L58.0436 174.838L58.0994 171.641L55.0768 170.601Z" fill="#FF21FB" fill-opacity="0.35"/>
<path d="M358.642 252.86L360.714 254.206L362.634 252.651L361.994 255.037L364.066 256.383L361.599 256.512L360.96 258.898L360.075 256.592L357.608 256.721L359.528 255.166L358.642 252.86Z" fill="#FC9E1C" fill-opacity="0.9"/>
</g>
<path d="M284.78 84.7799C287.569 80.8272 293.431 80.8272 296.22 84.7799L305.14 97.4224C308.923 102.785 315.455 105.491 321.922 104.374L337.169 101.742C341.936 100.919 346.081 105.064 345.258 109.831L342.626 125.078C341.509 131.545 344.215 138.077 349.578 141.86L362.22 150.78C366.173 153.569 366.173 159.431 362.22 162.22L349.578 171.14C344.215 174.923 341.509 181.455 342.626 187.922L345.258 203.169C346.081 207.936 341.936 212.081 337.169 211.258L321.922 208.626C315.455 207.509 308.923 210.215 305.14 215.578L296.22 228.22C293.431 232.173 287.569 232.173 284.78 228.22L275.86 215.578C272.077 210.215 265.545 207.509 259.078 208.626L243.831 211.258C239.064 212.081 234.919 207.936 235.742 203.169L238.374 187.922C239.491 181.455 236.785 174.923 231.422 171.14L218.78 162.22C214.827 159.431 214.827 153.569 218.78 150.78L231.422 141.86C236.785 138.077 239.491 131.545 238.374 125.078L235.742 109.831C234.919 105.064 239.064 100.919 243.831 101.742L259.078 104.374C265.545 105.491 272.077 102.785 275.86 97.4224L284.78 84.7799Z" stroke="#1AFF8C" stroke-width="10"/>
<path d="M290.5 116.917C268.689 116.917 250.917 134.69 250.917 156.5C250.917 178.311 268.689 196.083 290.5 196.083C312.31 196.083 330.083 178.311 330.083 156.5C330.083 134.69 312.31 116.917 290.5 116.917ZM309.421 147.396L286.977 169.84C286.423 170.394 285.671 170.711 284.879 170.711C284.087 170.711 283.335 170.394 282.781 169.84L271.579 158.638C270.431 157.49 270.431 155.59 271.579 154.442C272.727 153.294 274.627 153.294 275.775 154.442L284.879 163.546L305.225 143.2C306.373 142.052 308.273 142.052 309.421 143.2C310.569 144.348 310.569 146.208 309.421 147.396Z" fill="#1AFF8C"/>
<defs>
<clipPath id="clip0_1_4793">
<rect width="580" height="314" fill="white"/>
</clipPath>
</defs>
</svg>
