<svg width="52" height="16" viewBox="0 0 52 16" fill="none" xmlns="http://www.w3.org/2000/svg">
<g clip-path="url(#clip0_1_4645)">
<path d="M33.1691 0C29.6679 0 26.5244 1.82588 26.5244 5.17647C26.5244 9.03529 32.0773 9.29882 32.0773 11.2188C32.0773 12.0282 31.1362 12.7624 29.555 12.7624C27.2962 12.7624 25.6021 11.7459 25.6021 11.7459L24.8868 15.1341C24.8868 15.1341 26.8256 16 29.4232 16C33.2632 16 36.275 14.0988 36.275 10.6729C36.275 6.60706 30.7032 6.34353 30.7032 4.55529C30.7032 3.91529 31.475 3.21882 33.0562 3.21882C34.8444 3.21882 36.3126 3.95294 36.3126 3.95294L37.0279 0.677647C37.0091 0.677647 35.4091 0 33.1691 0ZM1.09387 0.244706L0.999756 0.734118C0.999756 0.734118 2.46799 0.997647 3.80446 1.54353C5.51739 2.16471 5.63034 2.52235 5.93151 3.63294L9.07504 15.7365H13.2915L19.748 0.244706H15.5503L11.3903 10.7859L9.69621 1.84471C9.54562 0.828235 8.75504 0.244706 7.77621 0.244706H1.09387ZM21.4421 0.244706L18.148 15.7365H22.1574L25.4327 0.244706H21.4421ZM43.7667 0.244706C42.8067 0.244706 42.2985 0.752941 41.922 1.65647L36.0491 15.7365H40.2467L41.0562 13.3835H46.1761L46.6656 15.7365H50.3738L47.155 0.244706H43.7667ZM44.3126 4.44235L45.555 10.2588H42.2232L44.3126 4.44235Z" fill="#1434CB"/>
</g>
<defs>
<clipPath id="clip0_1_4645">
<rect width="49.374" height="16" fill="white" transform="translate(1)"/>
</clipPath>
</defs>
</svg>
