<svg width="124" height="24" viewBox="0 0 124 24" fill="none" xmlns="http://www.w3.org/2000/svg">
<g clip-path="url(#clip0_1_4644)">
<path d="M33.1691 4C29.6679 4 26.5244 5.82588 26.5244 9.17647C26.5244 13.0353 32.0773 13.2988 32.0773 15.2188C32.0773 16.0282 31.1362 16.7624 29.555 16.7624C27.2962 16.7624 25.6021 15.7459 25.6021 15.7459L24.8868 19.1341C24.8868 19.1341 26.8256 20 29.4232 20C33.2632 20 36.275 18.0988 36.275 14.6729C36.275 10.6071 30.7032 10.3435 30.7032 8.55529C30.7032 7.91529 31.475 7.21882 33.0562 7.21882C34.8444 7.21882 36.3126 7.95294 36.3126 7.95294L37.0279 4.67765C37.0091 4.67765 35.4091 4 33.1691 4ZM1.09387 4.24471L0.999756 4.73412C0.999756 4.73412 2.46799 4.99765 3.80446 5.54353C5.51739 6.16471 5.63034 6.52235 5.93151 7.63294L9.07504 19.7365H13.2915L19.748 4.24471H15.5503L11.3903 14.7859L9.69621 5.84471C9.54562 4.82824 8.75504 4.24471 7.77621 4.24471H1.09387ZM21.4421 4.24471L18.148 19.7365H22.1574L25.4327 4.24471H21.4421ZM43.7667 4.24471C42.8067 4.24471 42.2985 4.75294 41.922 5.65647L36.0491 19.7365H40.2467L41.0562 17.3835H46.1761L46.6656 19.7365H50.3738L47.155 4.24471H43.7667ZM44.3126 8.44235L45.555 14.2588H42.2232L44.3126 8.44235Z" fill="#1434CB"/>
</g>
<g clip-path="url(#clip1_1_4644)">
<path d="M79.4443 5.71094H72.4443V18.2887H79.4443V5.71094Z" fill="#FF5F00"/>
<path d="M72.8888 11.9999C72.8888 9.55545 74.0221 7.22212 75.9332 5.71101C72.4666 2.97767 67.4443 3.57767 64.711 7.06656C61.9777 10.5332 62.5777 15.5555 66.0666 18.2888C68.9777 20.5777 73.0443 20.5777 75.9555 18.2888C74.0221 16.7777 72.8888 14.4443 72.8888 11.9999Z" fill="#EB001B"/>
<path d="M88.8889 11.9999C88.8889 16.4221 85.3111 19.9999 80.8889 19.9999C79.0889 19.9999 77.3556 19.3999 75.9556 18.2888C79.4222 15.5555 80.0222 10.5332 77.2889 7.04434C76.8889 6.55545 76.4445 6.08879 75.9556 5.71101C79.4222 2.97767 84.4667 3.57767 87.1778 7.06656C88.2889 8.46656 88.8889 10.1999 88.8889 11.9999Z" fill="#F79E1B"/>
<path d="M88.1333 16.9554V16.6887H88.2444V16.6443H87.9778V16.6887H88.0889V16.9554H88.1333ZM88.6444 16.9554V16.6443H88.5556L88.4667 16.8665L88.3778 16.6443H88.2889V16.9554H88.3556V16.711L88.4444 16.911H88.5111L88.6 16.711V16.9554H88.6444Z" fill="#F79E1B"/>
</g>
<g clip-path="url(#clip2_1_4644)">
<path d="M100 24H124V-2.86102e-05H100V24Z" fill="#006FCF"/>
<path d="M108.694 20.2023L118.184 20.2224L119.674 18.5597L121.175 20.2161H124V17.7902L122.231 15.8824L124 13.9919V11.6164L108.694 11.6027V20.2023Z" fill="white"/>
<path fill-rule="evenodd" clip-rule="evenodd" d="M109.717 19.2595V12.5491H115.406V14.0949H111.559V15.1442H115.315V16.6644H111.559V17.6951H115.406V19.2595L109.717 19.2595Z" fill="#006FCF"/>
<path d="M121.668 12.5492L119.738 14.6761L117.815 12.5492H115.378L118.526 15.9005L115.378 19.2595H117.748L119.686 17.1113L121.644 19.2595H124V19.1642L120.919 15.9005L124 12.602V12.5492H121.668Z" fill="#006FCF"/>
<path d="M120.522 3.96996L119.734 6.17457L118.948 3.96996H114.393V6.91246L113.097 3.96996H109.408L105.619 12.5696H124V3.96996H120.522Z" fill="white"/>
<path fill-rule="evenodd" clip-rule="evenodd" d="M110.362 8.76158L111.255 6.62721L112.148 8.76158H110.362ZM110.107 4.90416L107.129 11.6089H109.171L109.733 10.2663H112.777L113.338 11.6089H115.431L112.466 4.90416H110.107Z" fill="#006FCF"/>
<path d="M115.403 11.6076L117.209 11.6077V7.00217L118.921 11.6077H120.544L122.222 7.01781V11.6233L124 11.6077V4.90295H121.237L119.751 9.03473L118.274 4.91284L115.403 4.90292V11.6076Z" fill="#006FCF"/>
</g>
<defs>
<clipPath id="clip0_1_4644">
<rect width="49.374" height="16" fill="white" transform="translate(1 4)"/>
</clipPath>
<clipPath id="clip1_1_4644">
<rect width="25.8889" height="16" fill="white" transform="translate(63 4)"/>
</clipPath>
<clipPath id="clip2_1_4644">
<rect width="24" height="24" fill="white" transform="translate(100)"/>
</clipPath>
</defs>
</svg>
