<svg width="112" height="25" viewBox="0 0 112 25" fill="none" xmlns="http://www.w3.org/2000/svg">
<path fill-rule="evenodd" clip-rule="evenodd" d="M10.1402 8.05194C10.1402 8.94951 10.1441 9.31235 10.1488 8.85831C10.1535 8.40408 10.1535 7.66971 10.1488 7.22636C10.1441 6.78284 10.1402 7.15438 10.1402 8.05194ZM20.947 8.45993C20.947 8.48477 20.9587 8.53246 20.973 8.56564C20.9894 8.60372 20.999 8.60935 20.999 8.58088C20.999 8.55585 20.9874 8.50834 20.973 8.47498C20.9567 8.4369 20.947 8.43128 20.947 8.45993ZM21.0059 8.73192C21.0068 8.75676 21.0194 8.80445 21.0336 8.83763L21.0597 8.8982L21.0614 8.83763C21.0623 8.80445 21.0498 8.75676 21.0336 8.73192C21.0076 8.69167 21.0045 8.69167 21.0059 8.73192ZM17.8826 9.16439C17.8826 9.16964 17.9269 9.21389 17.9811 9.26267L18.0795 9.35152L17.9906 9.25324C17.9077 9.16167 17.8826 9.14118 17.8826 9.16439ZM10.1375 10.1976C10.1375 10.3805 10.1426 10.4514 10.1486 10.3552C10.1546 10.2591 10.1546 10.1095 10.1484 10.0228C10.1422 9.93612 10.1373 10.0148 10.1375 10.1976ZM18.9337 10.1044C18.9806 10.1446 19.024 10.172 19.0306 10.1657C19.0453 10.151 18.9068 10.0338 18.8732 10.0324C18.8597 10.0319 18.887 10.0643 18.9337 10.1044ZM19.0642 10.192C19.0642 10.1972 19.1086 10.2415 19.1628 10.2902L19.2611 10.3789L19.1722 10.2808C19.0893 10.1892 19.0642 10.1686 19.0642 10.192ZM21.3697 10.3009C21.3681 10.3245 21.4001 10.4741 21.4404 10.6333C21.481 10.7927 21.5224 10.9619 21.5328 11.0096C21.5431 11.0573 21.5586 11.0894 21.5671 11.0808C21.584 11.064 21.497 10.6141 21.4675 10.5668C21.4577 10.5508 21.4322 10.4748 21.411 10.398C21.3897 10.3211 21.3712 10.2774 21.3697 10.3009ZM19.4907 10.5936C19.5311 10.6368 19.6187 10.7138 19.6854 10.7648C19.7596 10.8217 19.7361 10.7914 19.6247 10.6863C19.4347 10.5073 19.3647 10.4589 19.4907 10.5936ZM10.139 11.1798C10.139 11.5206 10.1433 11.66 10.1488 11.4895C10.1541 11.3193 10.1541 11.0404 10.1488 10.8701C10.1433 10.6997 10.139 10.8391 10.139 11.1798ZM19.9415 10.9758C20.0672 11.1093 20.0944 11.1332 20.0944 11.1106C20.0944 11.1057 20.0295 11.0411 19.9505 10.967L19.8065 10.8322L19.9415 10.9758ZM11.7698 11.0741C11.7702 11.1405 11.7764 11.1642 11.7836 11.1265C11.7909 11.089 11.7907 11.0346 11.7831 11.0058C11.7755 10.9768 11.7696 11.0076 11.7698 11.0741ZM17.9584 11.1354C18.2607 11.4165 18.3429 11.4863 18.3556 11.4736C18.3632 11.4662 18.2496 11.3615 18.1033 11.2413C17.9569 11.1211 17.8917 11.0734 17.9584 11.1354ZM20.1272 11.1405C20.1308 11.1758 20.4609 11.4589 20.4782 11.4417C20.4862 11.4337 20.4289 11.3681 20.3508 11.2959C20.1968 11.1537 20.1233 11.1026 20.1272 11.1405ZM21.5655 11.1722C21.5717 11.2014 21.6006 11.334 21.6295 11.4669C21.6586 11.6 21.6837 11.7155 21.6853 11.7238C21.6871 11.7322 21.6993 11.7842 21.7124 11.8395C21.7644 12.058 21.788 12.33 21.7529 12.3084C21.7404 12.3006 21.7222 12.3146 21.7126 12.3396C21.6891 12.4007 21.5408 12.3351 21.3799 12.1922C21.1274 11.9681 20.9232 11.7922 20.8803 11.7619C20.851 11.7412 20.7618 11.6636 20.6818 11.5893C20.6018 11.5149 20.5295 11.4611 20.5211 11.4694C20.5058 11.4846 20.6004 11.5731 20.8514 11.7788C20.9263 11.8399 21.0081 11.9129 21.0332 11.9409C21.1741 12.0974 21.6282 12.4491 21.6893 12.4491C21.84 12.4491 21.8598 12.2256 21.7484 11.7842C21.7084 11.6264 21.6598 11.4192 21.6406 11.324C21.6211 11.2286 21.5939 11.1436 21.5799 11.1351C21.5659 11.1263 21.5593 11.1432 21.5655 11.1722ZM11.7698 11.4368C11.7702 11.5031 11.7764 11.5269 11.7836 11.4892C11.7909 11.4516 11.7907 11.3972 11.7831 11.3684C11.7755 11.3394 11.7696 11.3702 11.7698 11.4368ZM18.5794 11.691C18.5794 11.7091 18.591 11.7238 18.6054 11.7238C18.6196 11.7238 18.665 11.7545 18.7065 11.7918C18.7479 11.8292 18.8146 11.887 18.8548 11.9202L18.9279 11.9808L18.8673 11.9093C18.7774 11.8034 18.5794 11.6535 18.5794 11.691ZM10.1304 15.562C10.1246 17.6146 10.1224 19.399 10.1255 19.5272C10.1315 19.7704 10.1092 19.8625 10.0623 19.7885C10.0432 19.7586 10.0361 19.7657 10.0357 19.8152C10.0354 19.8618 9.99518 19.9078 9.90646 19.963C9.62523 20.1381 9.44398 20.2612 9.43435 20.2834C9.42871 20.2962 9.41108 20.3066 9.3949 20.3066C9.3789 20.3066 9.28801 20.3575 9.19293 20.4199C9.09803 20.4821 9.00659 20.5399 8.98987 20.5485C8.96187 20.5626 8.88425 20.6123 8.4294 20.9075C8.33778 20.967 8.25816 21.0261 8.2527 21.039C8.24707 21.0516 8.22671 21.0625 8.20726 21.0629C8.1878 21.0634 8.02183 21.1644 7.83858 21.2874C7.65534 21.4103 7.50099 21.4992 7.49572 21.4847C7.49045 21.4703 7.46954 21.4649 7.44918 21.4725C7.40265 21.4905 7.27176 21.3652 7.19613 21.2303C7.17831 21.1985 7.13832 21.169 7.10723 21.1646C7.0587 21.1577 7.05706 21.1617 7.09633 21.1925C7.12123 21.2123 7.17813 21.2828 7.22267 21.3492C7.32702 21.5053 7.44682 21.6393 7.46536 21.6207C7.47354 21.6127 7.48009 21.6239 7.48009 21.6455C7.48009 21.6798 7.72969 22.0172 8.18708 22.6011C8.26198 22.6968 8.45176 22.9438 8.60865 23.1502C8.89315 23.5244 8.9306 23.5725 9.15839 23.8577C9.29837 24.0328 9.27928 24.0084 9.48707 24.2807C9.91246 24.8383 9.94046 24.87 10.0092 24.87C10.1632 24.87 10.1572 25.1524 10.1488 18.2449C10.143 13.2979 10.1386 12.6839 10.1304 15.562ZM19.0037 12.0551C19.0037 12.0712 19.0342 12.1004 19.0719 12.12C19.1397 12.1556 19.1397 12.1554 19.0822 12.0908C19.018 12.0188 19.0037 12.0123 19.0037 12.0551ZM19.376 12.3811C19.4629 12.46 19.5385 12.5351 19.5441 12.5478C19.5496 12.5603 19.5838 12.5849 19.6198 12.6022C19.6558 12.6196 19.59 12.5449 19.4733 12.4364C19.3565 12.328 19.2515 12.2388 19.2396 12.2384C19.228 12.2379 19.2893 12.3023 19.376 12.3811ZM19.8416 12.8011C19.9274 12.8818 20.0324 12.975 20.075 13.0082C20.1173 13.0415 20.1528 13.0856 20.1535 13.1064C20.1544 13.1273 20.1753 13.1442 20.2004 13.1442C20.2253 13.1442 20.2459 13.1639 20.2459 13.188C20.2459 13.2122 20.2695 13.245 20.2982 13.2611C20.3446 13.287 20.3411 13.2947 20.2679 13.3278C20.2224 13.3485 20.1853 13.3753 20.1853 13.3873C20.1853 13.3993 20.1613 13.4172 20.1322 13.4268C20.0808 13.4443 19.9735 13.5066 19.9428 13.5371C19.9345 13.5454 19.8799 13.5784 19.8217 13.6103C19.7634 13.6424 19.7089 13.6763 19.7005 13.686C19.6736 13.7168 19.4914 13.8394 19.4725 13.8394C19.4623 13.8394 19.4094 13.8733 19.3547 13.9148C19.3002 13.9565 19.246 13.9904 19.2344 13.9904C19.2133 13.9904 19.0326 14.1106 19.0037 14.1438C18.9953 14.1534 18.9408 14.1873 18.8824 14.2194C18.8241 14.2513 18.7695 14.2843 18.7612 14.2927C18.7388 14.315 18.6314 14.3808 18.5794 14.404C18.5545 14.4151 18.5272 14.4319 18.5188 14.4416C18.4918 14.4724 18.3098 14.5948 18.2909 14.5948C18.2807 14.5948 18.2278 14.6289 18.1731 14.6704C18.1185 14.7119 18.0644 14.746 18.0527 14.746C18.0316 14.746 17.8509 14.8662 17.822 14.8994C17.8137 14.9088 17.7591 14.9429 17.7008 14.9748C17.6424 15.0069 17.5879 15.0397 17.5795 15.0481C17.5572 15.0706 17.4497 15.1362 17.3977 15.1594C17.3728 15.1707 17.3456 15.1875 17.3372 15.1971C17.3101 15.228 17.1281 15.3504 17.1092 15.3504C17.0991 15.3504 17.0462 15.3845 16.9914 15.426C16.9369 15.4675 16.8774 15.5014 16.8596 15.5014C16.8418 15.5014 16.8225 15.5119 16.8171 15.5248C16.8022 15.5589 16.469 15.7734 16.4306 15.7734C16.4126 15.7734 16.3979 15.7855 16.3979 15.8002C16.3979 15.8149 16.3741 15.8349 16.345 15.8447C16.2912 15.8626 16.1834 15.9261 16.1556 15.956C16.1196 15.9948 15.7003 16.257 15.6743 16.257C15.6585 16.257 15.6409 16.2675 15.6354 16.2802C15.6238 16.307 15.2913 16.529 15.263 16.529C15.2526 16.529 15.2275 16.5435 15.2075 16.5613C15.1382 16.6224 14.5192 17.0126 14.4916 17.0126C14.4763 17.0126 14.4593 17.0229 14.4538 17.0358C14.4422 17.0625 14.1097 17.2846 14.0813 17.2846C14.0709 17.2846 14.0459 17.2989 14.0259 17.3167C13.9471 17.3858 13.3409 17.768 13.31 17.768C13.292 17.768 13.2769 17.7783 13.2763 17.7907C13.2758 17.8032 13.1662 17.8813 13.0326 17.9646C12.8991 18.0476 12.6635 18.1972 12.5092 18.2969C12.3548 18.3967 12.151 18.5281 12.0563 18.5892C11.9358 18.6668 11.8773 18.6895 11.8614 18.6647C11.8489 18.6453 11.8287 17.793 11.8164 16.7707C11.8042 15.7486 11.7895 14.8374 11.7838 14.746C11.778 14.6544 11.7744 16.8742 11.7755 19.6786L11.7775 24.7777L11.8451 24.8452L11.9129 24.9128L11.9962 24.8508C12.0418 24.8167 12.1205 24.7335 12.1707 24.6659C12.2421 24.5699 12.6426 24.0633 12.7859 23.8878C12.8153 23.8517 13.072 23.5184 13.3912 23.1021C13.5185 22.9358 13.6985 22.7039 13.7908 22.5866C13.8833 22.4693 13.993 22.3273 14.0346 22.2711C14.0764 22.2149 14.1857 22.0727 14.2776 21.9554C14.3698 21.8381 14.472 21.707 14.5049 21.6638C14.538 21.6207 14.6467 21.4796 14.7467 21.3505C14.8467 21.2212 14.9574 21.0756 14.9928 21.0272C15.0283 20.9786 15.0968 20.8953 15.1453 20.8419C15.1939 20.7885 15.2739 20.6888 15.3233 20.6203C15.3728 20.5515 15.4906 20.3952 15.5851 20.2727C15.6796 20.1501 15.8536 19.9205 15.9719 19.7626C16.0903 19.6048 16.2243 19.4302 16.2697 19.3749C16.3742 19.2478 16.4768 19.1162 16.7611 18.7446C16.886 18.5814 17.07 18.3443 17.1701 18.2175C17.2703 18.0908 17.4068 17.9158 17.4735 17.8287C17.5403 17.7419 17.6108 17.6538 17.6302 17.6331C17.6499 17.6126 17.7044 17.5413 17.7515 17.475C17.8604 17.3214 18.0593 17.0608 18.2912 16.7669C18.3914 16.6401 18.5456 16.4429 18.6337 16.3286C18.7219 16.2144 18.9097 15.9714 19.0511 15.7886C19.1926 15.6057 19.3553 15.395 19.4127 15.3201C19.5883 15.0914 20.249 14.2396 20.4646 13.9638C20.7465 13.6031 20.7456 13.5512 20.4535 13.2914C20.3344 13.1855 20.1991 13.0649 20.153 13.0234C19.7858 12.6928 19.5394 12.5171 19.8416 12.8011ZM5.30858 18.8862C5.34422 18.9361 5.38021 18.9769 5.38857 18.9769C5.39694 18.9769 5.37458 18.9361 5.33895 18.8862C5.30331 18.8364 5.26732 18.7956 5.25914 18.7956C5.25078 18.7956 5.27314 18.8364 5.30858 18.8862ZM5.71562 19.4076C5.76234 19.4699 5.80633 19.5209 5.81324 19.5209C5.83996 19.5209 5.76543 19.4115 5.6998 19.3542C5.64326 19.3051 5.64617 19.3147 5.71562 19.4076ZM6.00121 19.7853C6.03921 19.8393 6.07666 19.8835 6.08447 19.8835C6.11065 19.8835 6.03957 19.7731 5.98558 19.73C5.94777 19.6995 5.95213 19.7156 6.00121 19.7853ZM6.23518 20.0805C6.27953 20.1383 6.32026 20.1858 6.32589 20.1858C6.35134 20.1858 6.22827 20.0036 6.19373 19.9903C6.17228 19.982 6.191 20.0226 6.23518 20.0805ZM6.41624 20.3142C6.46496 20.3682 6.51532 20.4253 6.52786 20.4411C6.54241 20.4591 6.55095 20.4589 6.55095 20.4402C6.55095 20.4047 6.38188 20.2159 6.35007 20.2159C6.33753 20.2159 6.36734 20.2602 6.41624 20.3142ZM6.67293 20.6391C6.74274 20.7305 6.81437 20.8107 6.832 20.817C6.8689 20.8306 6.84927 20.8054 6.67003 20.6088L6.54604 20.4729L6.67293 20.6391ZM6.97125 21.0226C6.99016 21.0593 7.02016 21.0979 7.03779 21.1088C7.09814 21.1459 7.08451 21.1077 7.01052 21.0319C6.94362 20.9635 6.93999 20.9626 6.97125 21.0226Z" fill="#FC3146"/>
<path fill-rule="evenodd" clip-rule="evenodd" d="M21.146 9.4579C21.1549 9.49126 21.1763 9.52753 21.1938 9.53841C21.2138 9.55074 21.2182 9.53841 21.2052 9.50522C21.1942 9.47621 21.1851 9.43995 21.1851 9.42472C21.1851 9.40948 21.1727 9.39697 21.1576 9.39697C21.1425 9.39697 21.1372 9.42435 21.146 9.4579ZM21.2285 9.83741C21.2351 9.86933 21.2492 9.91792 21.2601 9.9453C21.271 9.97287 21.2661 10.0039 21.2491 10.0144C21.232 10.0249 21.224 10.0501 21.2314 10.0702C21.2511 10.1237 21.0618 10.3036 20.986 10.3036C20.9753 10.3036 20.9167 10.3424 20.856 10.3901C20.7953 10.4376 20.6979 10.5007 20.6397 10.5303C20.5813 10.5598 20.5268 10.5934 20.5184 10.6046C20.5101 10.616 20.4555 10.6516 20.3972 10.6837C20.3388 10.7156 20.2845 10.7486 20.2761 10.7569C20.1608 10.8719 19.9427 10.9513 19.9427 10.8784C19.9427 10.8621 19.9096 10.8403 19.8693 10.8302C19.8287 10.8202 19.7884 10.7926 19.7793 10.7693C19.7702 10.7459 19.7456 10.7266 19.7245 10.7266C19.6864 10.7266 20.0554 11.0764 20.1548 11.1346C20.203 11.1629 20.5424 11.4585 20.732 11.6374C20.7784 11.6811 20.8427 11.7355 20.8749 11.7582C20.9222 11.7916 21.12 11.9618 21.3798 12.1923C21.5406 12.3352 21.689 12.4008 21.7124 12.3397C21.7221 12.3147 21.7403 12.3007 21.7528 12.3085C21.7879 12.3301 21.7642 12.0581 21.7123 11.8396C21.6992 11.7843 21.687 11.7323 21.6852 11.7239C21.6835 11.7156 21.6595 11.6068 21.6319 11.4822C21.6043 11.3575 21.5745 11.2148 21.5657 11.1649C21.5392 11.0142 21.4996 10.8456 21.427 10.5756C21.3892 10.4342 21.3599 10.2873 21.3623 10.249C21.3645 10.2108 21.3541 10.1868 21.339 10.1961C21.3241 10.2053 21.3185 10.1872 21.3269 10.1558C21.335 10.1245 21.327 10.0896 21.3089 10.0786C21.2907 10.0673 21.276 10.0447 21.276 10.028C21.276 10.0113 21.289 10.0059 21.305 10.0157C21.3218 10.0262 21.3201 9.9919 21.3009 9.93442C21.2625 9.81983 21.2109 9.75056 21.2285 9.83741ZM19.5186 10.5631C19.5186 10.5807 19.5528 10.6271 19.5944 10.6663C19.636 10.7052 19.67 10.7274 19.67 10.7154C19.67 10.7036 19.636 10.6572 19.5944 10.6122C19.5528 10.5674 19.5186 10.5453 19.5186 10.5631ZM18.4582 11.6331C18.4582 11.6697 18.5431 11.7096 18.568 11.6848C18.5771 11.6757 18.556 11.6532 18.5213 11.6347C18.4775 11.6113 18.4582 11.6108 18.4582 11.6331ZM18.5902 11.7691C18.6016 11.7986 18.5634 11.8463 18.4798 11.9071C18.2873 12.0469 17.9797 12.2376 17.9468 12.2376C17.9308 12.2376 17.9132 12.248 17.9077 12.2603C17.9021 12.2728 17.843 12.3183 17.7765 12.3617C17.6363 12.4525 17.2178 12.7223 16.9684 12.8828C16.8739 12.9435 16.783 12.9932 16.7664 12.9932C16.7497 12.9932 16.7315 13.0034 16.7261 13.0159C16.7204 13.0284 16.6614 13.0739 16.5948 13.1171C16.303 13.3062 15.9447 13.5367 15.7768 13.6429C15.6768 13.7062 15.5199 13.8079 15.4283 13.8692C15.3366 13.9305 15.2479 13.9862 15.2314 13.9931C15.2147 14 15.0989 14.0725 14.9738 14.1541C14.8489 14.2357 14.6716 14.3499 14.5798 14.4079C14.4882 14.466 14.3382 14.5635 14.2466 14.6248C14.155 14.6859 14.0663 14.7418 14.0497 14.7487C14.033 14.7555 13.9205 14.8257 13.7998 14.9048C13.6789 14.9837 13.4813 15.1129 13.3604 15.1918C13.2395 15.2707 13.1271 15.3405 13.1104 15.3469C13.0937 15.3532 13.0597 15.3761 13.0346 15.3976C13.0095 15.4192 12.955 15.4551 12.9134 15.4774C12.8717 15.4995 12.7356 15.5842 12.6105 15.6653C12.4856 15.7463 12.3287 15.848 12.262 15.8914C12.1955 15.9347 12.1364 15.9802 12.1307 15.9927C12.1253 16.0051 12.1029 16.0154 12.0815 16.0154C12.0598 16.0154 12.0253 16.0357 12.0046 16.0607C11.8835 16.2062 11.8573 16.1173 11.8261 15.4562C11.8101 15.1168 11.8057 15.491 11.813 16.5594C11.8288 18.8835 11.8122 18.7464 12.0562 18.5893C12.1509 18.5282 12.3547 18.3968 12.5091 18.297C12.6634 18.1973 12.899 18.0477 13.0324 17.9647C13.166 17.8814 13.2757 17.8033 13.2762 17.7908C13.2768 17.7785 13.2918 17.7681 13.3098 17.7681C13.3407 17.7681 13.947 17.3859 14.0257 17.3168C14.0457 17.299 14.0708 17.2847 14.0812 17.2847C14.1095 17.2847 14.442 17.0626 14.4537 17.0359C14.4591 17.023 14.4762 17.0127 14.4915 17.0127C14.5191 17.0127 15.1381 16.6225 15.2074 16.5614C15.2274 16.5436 15.2525 16.5291 15.2628 16.5291C15.2912 16.5291 15.6237 16.3072 15.6353 16.2803C15.6408 16.2676 15.6584 16.2571 15.6742 16.2571C15.7002 16.2571 16.1194 15.9949 16.1554 15.9561C16.1832 15.9262 16.291 15.8627 16.3449 15.8448C16.3739 15.835 16.3978 15.815 16.3978 15.8004C16.3978 15.7857 16.4125 15.7735 16.4305 15.7735C16.4688 15.7735 16.8021 15.559 16.817 15.5249C16.8224 15.512 16.8417 15.5015 16.8595 15.5015C16.8773 15.5015 16.9368 15.4676 16.9913 15.4261C17.046 15.3846 17.0989 15.3505 17.1091 15.3505C17.128 15.3505 17.31 15.2281 17.3371 15.1973C17.3454 15.1877 17.3727 15.1708 17.3976 15.1595C17.4496 15.1363 17.557 15.0707 17.5794 15.0482C17.5878 15.0399 17.6423 15.0071 17.7007 14.975C17.759 14.943 17.8136 14.909 17.8219 14.8995C17.8508 14.8663 18.0315 14.7461 18.0526 14.7461C18.0642 14.7461 18.1184 14.712 18.173 14.6705C18.2277 14.629 18.2806 14.5949 18.2908 14.5949C18.3078 14.5949 18.4849 14.4776 18.5187 14.4438C18.5413 14.4214 18.6485 14.3557 18.7005 14.3325C18.7254 14.3215 18.7527 14.3044 18.761 14.295C18.7694 14.2854 18.824 14.2515 18.8823 14.2195C18.9407 14.1875 18.9952 14.1535 19.0036 14.1439C19.0325 14.1107 19.2132 13.9905 19.2343 13.9905C19.2459 13.9905 19.3001 13.9566 19.3546 13.9149C19.4093 13.8734 19.4622 13.8395 19.4724 13.8395C19.4913 13.8395 19.6735 13.7169 19.7004 13.6861C19.7087 13.6765 19.7633 13.6426 19.8216 13.6105C19.8798 13.5786 19.9343 13.5456 19.9427 13.5372C19.9734 13.5068 20.0807 13.4444 20.1321 13.427C20.1612 13.4174 20.1852 13.3994 20.1852 13.3874C20.1852 13.3755 20.2223 13.3486 20.2677 13.328C20.341 13.2948 20.3445 13.2872 20.2981 13.2612C20.2694 13.2451 20.2457 13.2123 20.2457 13.1882C20.2457 13.164 20.2252 13.1443 20.2003 13.1443C20.1752 13.1443 20.1543 13.1274 20.1534 13.1066C20.1527 13.0857 20.117 13.0416 20.0741 13.0083C20.0314 12.9751 19.9194 12.8775 19.8256 12.7914C19.7316 12.7055 19.5684 12.5559 19.4626 12.459C19.357 12.3622 19.2523 12.2726 19.2301 12.2601C19.2077 12.2474 19.1363 12.1863 19.071 12.1241C18.7023 11.7729 18.5478 11.6587 18.5902 11.7691ZM10.0676 17.1748C10.0656 17.253 9.91307 17.4338 9.84799 17.4352C9.83653 17.4356 9.80872 17.4528 9.78599 17.4735C9.76327 17.4943 9.718 17.5275 9.68546 17.5473C9.65274 17.567 9.51694 17.6524 9.38369 17.7371C9.25044 17.8218 9.11409 17.9076 9.08064 17.9279C9.04737 17.948 9.01338 17.9728 9.00502 17.983C8.99666 17.9931 8.94212 18.026 8.88376 18.0557C8.75651 18.1208 8.5998 18.2278 8.5858 18.2593C8.58035 18.2717 8.56526 18.282 8.55236 18.282C8.53272 18.282 8.17714 18.5025 8.07915 18.5754C8.00189 18.633 7.92535 18.6778 7.87627 18.6943C7.84718 18.7041 7.82337 18.7221 7.82337 18.7342C7.82337 18.7464 7.76883 18.7808 7.70212 18.8107C7.6354 18.8408 7.58086 18.8751 7.58086 18.8873C7.58086 18.8994 7.53996 18.9261 7.48996 18.9467C7.43997 18.9674 7.39907 18.9962 7.39907 19.0109C7.39907 19.0254 7.38743 19.0374 7.37325 19.0374C7.35162 19.0374 7.00149 19.2534 6.89751 19.331C6.82025 19.3886 6.74371 19.4334 6.69462 19.4499C6.66554 19.4595 6.64173 19.478 6.64173 19.4907C6.64173 19.5032 6.59955 19.531 6.5481 19.5524C6.49684 19.5736 6.43848 19.6059 6.41867 19.624C6.21651 19.809 6.08853 19.8274 6.002 19.6846C5.97509 19.6403 5.94546 19.6166 5.93583 19.6318C5.92637 19.647 5.97909 19.7252 6.0529 19.8053C6.12671 19.8857 6.18725 19.9633 6.18725 19.978C6.18725 19.9926 6.19779 20.0046 6.21051 20.0046C6.22342 20.0046 6.25942 20.0518 6.29068 20.1094C6.32177 20.1671 6.35904 20.2071 6.37322 20.1983C6.38758 20.1896 6.39958 20.2001 6.39976 20.2218C6.40012 20.2436 6.43412 20.2935 6.47557 20.3326C6.51684 20.3718 6.55119 20.4193 6.55156 20.4383C6.5521 20.4574 6.60319 20.529 6.66518 20.5975C6.72717 20.6661 6.79843 20.7528 6.82352 20.7901C6.84842 20.8276 6.88696 20.8768 6.90896 20.8998C6.93095 20.9227 6.94077 20.9413 6.93059 20.9413C6.92059 20.9413 6.95059 20.9789 6.99749 21.0246C7.04439 21.0703 7.08912 21.1212 7.09693 21.1379C7.10493 21.1544 7.12111 21.1647 7.13311 21.1607C7.14511 21.1568 7.1711 21.1838 7.19092 21.2206C7.21073 21.2576 7.24182 21.3045 7.26 21.325C7.35526 21.4326 7.38398 21.4706 7.38398 21.4897C7.38398 21.5011 7.39634 21.522 7.41161 21.5357C7.42743 21.5502 7.4307 21.5461 7.41925 21.5263C7.40834 21.5073 7.41889 21.4842 7.44288 21.4752C7.4667 21.4661 7.49033 21.4705 7.4956 21.4848C7.50087 21.4993 7.65521 21.4104 7.83846 21.2875C8.02171 21.1646 8.18768 21.0636 8.20713 21.063C8.22658 21.0626 8.24695 21.0518 8.25258 21.0391C8.25803 21.0262 8.33766 20.9671 8.42928 20.9076C8.88413 20.6124 8.96175 20.5627 8.98975 20.5486C9.00647 20.5401 9.09791 20.4822 9.19281 20.42C9.28788 20.3576 9.37878 20.3067 9.39478 20.3067C9.41096 20.3067 9.42859 20.2964 9.43423 20.2835C9.44386 20.2614 9.62511 20.1382 9.90634 19.9631C9.99287 19.9092 10.036 19.8608 10.0374 19.8153C10.0389 19.7781 10.0469 19.7647 10.0552 19.7856C10.0636 19.8066 10.0829 19.816 10.0979 19.8068C10.1323 19.7856 10.1292 17.2321 10.0947 17.1487C10.073 17.0965 10.0694 17.0999 10.0676 17.1748ZM5.61151 19.2584C5.61151 19.2637 5.65587 19.3079 5.71004 19.3567L5.80839 19.4454L5.71949 19.3473C5.6366 19.2557 5.61151 19.2351 5.61151 19.2584Z" fill="#FC5234"/>
<path fill-rule="evenodd" clip-rule="evenodd" d="M19.4329 2.05302C19.4346 2.13154 19.4822 2.26046 19.4833 2.18902C19.4838 2.15565 19.4724 2.10126 19.4582 2.06807C19.4422 2.03108 19.4324 2.02528 19.4329 2.05302ZM19.5238 2.40044C19.5235 2.43381 19.5347 2.48821 19.5491 2.52139C19.5822 2.59845 19.5822 2.51903 19.5491 2.41568C19.5295 2.35493 19.5245 2.35185 19.5238 2.40044ZM20.0759 4.90802C20.087 4.98254 20.1246 4.99886 20.1246 4.92905C20.1246 4.89297 20.1123 4.86359 20.097 4.86359C20.0819 4.86359 20.0725 4.88354 20.0759 4.90802ZM20.1034 5.09768C20.1119 5.14338 20.129 5.21229 20.141 5.25073C20.1586 5.30639 20.1499 5.3238 20.0985 5.33722C20.0628 5.34647 20.0337 5.36442 20.0337 5.37711C20.0337 5.3898 19.9928 5.417 19.9428 5.43767C19.8929 5.45834 19.8519 5.48718 19.8519 5.50186C19.8519 5.51637 19.8374 5.52834 19.8198 5.52834C19.802 5.52834 19.7427 5.56243 19.688 5.60395C19.6334 5.64548 19.58 5.67957 19.5693 5.67957C19.5584 5.67957 19.46 5.74067 19.3504 5.81556C19.2409 5.89027 19.1386 5.95156 19.123 5.95156C19.1073 5.95156 19.0946 5.96352 19.0946 5.97821C19.0946 5.9929 19.0706 6.01285 19.0415 6.02264C18.9817 6.04258 18.8894 6.10006 18.8305 6.15356C18.8088 6.17314 18.7639 6.19798 18.7308 6.2085C18.6976 6.21901 18.6703 6.24023 18.6703 6.25582C18.6703 6.27124 18.6558 6.28393 18.6381 6.28393C18.6203 6.28393 18.561 6.31802 18.5063 6.35954C18.4518 6.40107 18.3967 6.43497 18.384 6.43497C18.3713 6.43497 18.3113 6.47251 18.2504 6.5182C18.1027 6.62918 18.0297 6.67505 17.9659 6.69627C17.9368 6.70606 17.913 6.72455 17.913 6.73725C17.913 6.74994 17.889 6.76843 17.8599 6.77823C17.7992 6.79853 17.7072 6.85583 17.6468 6.91096C17.6241 6.93181 17.5939 6.94886 17.5796 6.94886C17.5654 6.94886 17.5356 6.9659 17.5136 6.98657C17.4608 7.03644 17.2227 7.19056 17.1983 7.19056C17.1878 7.19056 17.1296 7.22792 17.0687 7.27361C16.9211 7.38476 16.848 7.43046 16.7842 7.45186C16.7551 7.46165 16.7313 7.47851 16.7313 7.48939C16.7313 7.50027 16.68 7.53599 16.6177 7.56881C16.5552 7.60145 16.4972 7.63627 16.4888 7.64624C16.4123 7.73708 16.2616 7.71424 16.1788 7.59928C16.1647 7.57969 16.1563 7.58259 16.1561 7.60707C16.1558 7.62829 16.1759 7.65349 16.2008 7.6631C16.2257 7.67271 16.239 7.69193 16.2303 7.70589C16.2096 7.73926 16.3077 7.78949 16.3732 7.77897C16.4061 7.77353 16.4183 7.78568 16.4077 7.81306C16.3974 7.8399 16.4121 7.85567 16.4477 7.85585C16.4952 7.85622 16.4968 7.86093 16.4586 7.88559C16.4234 7.90826 16.4225 7.91496 16.4543 7.91533C16.477 7.91569 16.5568 7.98043 16.6319 8.05948C16.7068 8.13836 16.7586 8.1826 16.7469 8.15758C16.7353 8.13274 16.7719 8.15994 16.8282 8.21815C16.8844 8.27617 17.0033 8.3817 17.0924 8.45224C17.1814 8.52295 17.2427 8.5808 17.2283 8.5808C17.2142 8.5808 17.2363 8.60401 17.2774 8.63248C17.3187 8.66094 17.3767 8.7148 17.4065 8.75197C17.4363 8.78932 17.4788 8.8129 17.501 8.80437C17.5243 8.79531 17.5483 8.81507 17.5576 8.8508C17.5665 8.88489 17.599 8.92224 17.6297 8.93366C17.6604 8.94491 17.7163 8.98933 17.7537 9.03194C17.7913 9.07473 17.8219 9.09631 17.8219 9.08017C17.8221 9.06404 17.8432 9.08108 17.8691 9.11807C17.8951 9.15488 17.936 9.18516 17.96 9.18516C17.984 9.18516 18.0039 9.20547 18.0039 9.23049C18.0039 9.25534 18.0242 9.27583 18.0493 9.27583C18.0742 9.27583 18.0913 9.29287 18.0871 9.31354C18.0829 9.33439 18.0966 9.34799 18.1175 9.34382C18.1382 9.33965 18.1553 9.3576 18.1553 9.38372C18.1553 9.41654 18.1729 9.42542 18.2133 9.41255C18.2453 9.40257 18.2814 9.41055 18.2938 9.43032C18.3078 9.45317 18.3033 9.4586 18.2811 9.445C18.262 9.43304 18.2462 9.43685 18.2462 9.45335C18.2462 9.55888 18.7176 9.33494 18.9913 9.09921C19.0095 9.08362 19.071 9.04681 19.1277 9.01743C19.2533 8.9527 19.4091 8.8459 19.4227 8.81489C19.4284 8.80256 19.446 8.79223 19.4618 8.79223C19.4778 8.79223 19.5278 8.7672 19.5729 8.73656C19.6182 8.70591 19.7165 8.64136 19.7914 8.59313C19.8663 8.5449 19.9345 8.49848 19.9428 8.49014C19.9732 8.45967 20.0806 8.3973 20.1323 8.37989C20.1614 8.3701 20.1854 8.35269 20.1854 8.34108C20.1854 8.32948 20.2359 8.29593 20.2979 8.26638C20.3597 8.237 20.4586 8.17499 20.5175 8.12893C20.5764 8.08269 20.6564 8.03501 20.6949 8.02304C20.74 8.00889 20.7593 7.98514 20.7484 7.95685C20.7391 7.93255 20.7435 7.92023 20.7582 7.92929C20.7729 7.93836 20.7924 7.92657 20.8013 7.90318C20.8104 7.87961 20.7965 7.85241 20.7709 7.84244C20.7335 7.82811 20.7282 7.79638 20.7447 7.68559C20.7591 7.59057 20.7555 7.55304 20.7335 7.56664C20.7126 7.57951 20.7049 7.55413 20.7118 7.49501C20.7178 7.44478 20.7109 7.4107 20.6966 7.41958C20.6822 7.42847 20.6704 7.40435 20.6702 7.36591C20.6695 7.24224 20.6513 7.14668 20.6158 7.08122C20.5969 7.04605 20.588 7.01051 20.5962 7.00235C20.6044 6.99419 20.5971 6.95067 20.58 6.90588C20.5629 6.86109 20.5433 6.78095 20.5362 6.72782C20.5291 6.67487 20.5011 6.54304 20.4742 6.43497C20.4473 6.3269 20.4191 6.2114 20.4119 6.17822C20.4046 6.14485 20.3699 5.99525 20.3348 5.84566C20.2997 5.69606 20.2648 5.53287 20.257 5.48301C20.2264 5.28554 20.1764 5.1374 20.1468 5.15571C20.127 5.16786 20.1232 5.14592 20.1361 5.09479C20.149 5.04347 20.1439 5.01464 20.1219 5.01464C20.1008 5.01464 20.0936 5.04673 20.1034 5.09768ZM15.9434 7.44152C15.9434 7.44696 15.9861 7.4912 16.0381 7.53998C16.1045 7.60218 16.1212 7.60979 16.0943 7.56519C16.061 7.51042 15.9434 7.41396 15.9434 7.44152ZM5.71583 7.73654C5.66692 7.78749 5.64729 7.82086 5.67238 7.8107C5.7131 7.79438 5.84235 7.64388 5.81563 7.64388C5.80963 7.64388 5.76473 7.68559 5.71583 7.73654ZM11.8046 8.18786C11.8046 8.42885 11.8093 8.52749 11.8151 8.40691C11.8208 8.2865 11.8208 8.08922 11.8151 7.96882C11.8093 7.84824 11.8046 7.94688 11.8046 8.18786ZM14.6407 8.26384C14.6407 8.27635 14.6747 8.31824 14.7163 8.35668C14.7876 8.4225 14.8183 8.42105 14.7689 8.35414C14.7316 8.30355 14.6407 8.23936 14.6407 8.26384ZM14.8527 8.48633C14.8527 8.52441 14.9416 8.59277 14.9632 8.57137C14.973 8.5614 14.9601 8.53238 14.9343 8.50664C14.8816 8.45405 14.8527 8.44698 14.8527 8.48633ZM14.9661 8.64698C14.9917 8.67781 14.9801 8.68724 14.913 8.6896C14.8659 8.69123 14.7751 8.73293 14.7112 8.78225C14.5605 8.89848 14.1959 9.12478 14.1591 9.12478C14.1435 9.12478 14.1261 9.13494 14.1206 9.14745C14.115 9.15978 14.0559 9.20583 13.9892 9.24972C13.6265 9.48816 13.1578 9.7859 13.0651 9.83703C13.0068 9.86913 12.9522 9.90285 12.9439 9.91228C12.9297 9.92806 12.7357 10.0544 12.1734 10.4146C12.0389 10.5005 11.9131 10.5848 11.8938 10.6019C11.8677 10.6251 11.8538 10.5509 11.8391 10.3094C11.8282 10.1315 11.814 9.9656 11.8075 9.94075C11.8008 9.91573 11.8015 10.7235 11.8089 11.7355C11.8237 13.706 11.8231 13.7008 11.9696 13.6005C12.0138 13.57 12.1251 13.4978 12.2167 13.4398C12.3085 13.382 12.4652 13.2817 12.5652 13.2168C12.6652 13.1521 12.7606 13.0922 12.7773 13.0839C12.7939 13.0754 12.9099 13.0017 13.0348 12.9201C13.1598 12.8385 13.3302 12.7283 13.4136 12.6753C13.4969 12.6224 13.6469 12.5261 13.7468 12.4614C13.8468 12.3965 13.9423 12.3366 13.959 12.3283C13.9755 12.3199 14.0846 12.2507 14.2013 12.1745C14.7549 11.8128 14.8732 11.737 14.9436 11.6994C14.9852 11.6773 15.0397 11.6414 15.0648 11.6198C15.0897 11.5983 15.1239 11.5754 15.1406 11.5691C15.1572 11.5627 15.2697 11.4929 15.3906 11.414C15.5113 11.335 15.7091 11.2059 15.8298 11.1268C15.9507 11.0479 16.0632 10.9778 16.0798 10.9707C16.0965 10.9638 16.185 10.9081 16.2768 10.8468C16.5748 10.6479 16.7744 10.5225 16.8895 10.4619C16.9998 10.4039 17.0171 10.3547 16.9176 10.3814C16.8902 10.3888 16.9086 10.3736 16.9586 10.3476C17.0316 10.3098 17.0356 10.3032 16.9789 10.3148C16.9246 10.3259 16.9124 10.3183 16.9262 10.2827C16.9382 10.2514 16.9302 10.2414 16.902 10.2523C16.8778 10.2615 16.8437 10.2378 16.8215 10.1962C16.8002 10.1565 16.7688 10.1326 16.7519 10.1431C16.7331 10.1545 16.7286 10.1422 16.7402 10.1119C16.7509 10.0842 16.7464 10.0599 16.7302 10.0579C16.7142 10.0557 16.6884 10.0523 16.6731 10.0503C16.6579 10.0481 16.6341 10.0341 16.6202 10.0189C16.6051 10.0026 16.6135 10.0013 16.6404 10.0158C16.678 10.0361 16.6791 10.033 16.6464 9.99805C16.6248 9.97484 16.5906 9.95526 16.5706 9.95435C16.5506 9.95363 16.5377 9.93676 16.5419 9.91664C16.5461 9.89669 16.5299 9.88019 16.5059 9.88019C16.4817 9.88019 16.4524 9.8646 16.4404 9.84538C16.4263 9.82235 16.4323 9.81872 16.4586 9.83486C16.483 9.84991 16.4908 9.84755 16.479 9.82833C16.4684 9.81147 16.4188 9.78046 16.3686 9.75979C16.3186 9.73912 16.285 9.7101 16.2941 9.69542C16.3032 9.68073 16.2981 9.66876 16.2827 9.66876C16.2672 9.66876 16.1874 9.60403 16.1052 9.52515C16.0231 9.44627 15.8894 9.32714 15.8085 9.26078C15.6051 9.09396 15.3979 8.91118 15.3201 8.83013C15.2843 8.79259 15.2408 8.76213 15.2237 8.76213C15.2064 8.76213 15.1843 8.74073 15.1743 8.7148C15.1643 8.68887 15.1421 8.67618 15.1248 8.68688C15.1077 8.69739 15.0974 8.68978 15.1019 8.66983C15.1065 8.64989 15.0705 8.62758 15.0217 8.62051C14.9516 8.61017 14.9401 8.61561 14.9661 8.64698ZM11.8035 9.03412C11.8035 9.19187 11.8086 9.2566 11.8149 9.17755C11.8211 9.09867 11.8211 8.96938 11.8149 8.89051C11.8086 8.81163 11.8035 8.87618 11.8035 9.03412ZM11.8008 9.75943C11.8008 9.83413 11.8068 9.86478 11.814 9.82742C11.8211 9.78989 11.8211 9.72878 11.814 9.69143C11.8068 9.65389 11.8008 9.68454 11.8008 9.75943ZM5.55676 9.73023C5.52022 9.76414 5.4904 9.80059 5.4904 9.8111C5.4904 9.82162 5.52458 9.79841 5.56621 9.75943C5.63729 9.69288 5.65493 9.66876 5.63257 9.66876C5.6273 9.66876 5.5933 9.6965 5.55676 9.73023ZM10.0941 11.0211C10.093 11.2663 10.0819 11.5297 10.0692 11.6064C10.0565 11.6831 10.0568 11.7747 10.0697 11.8099C10.0906 11.8661 10.0868 11.8697 10.0388 11.8398C9.9892 11.809 9.86104 11.8674 9.76251 11.9655C9.75415 11.9738 9.69961 12.0068 9.64144 12.0387C9.58308 12.0708 9.44219 12.1591 9.32821 12.2353C9.21423 12.3112 9.09879 12.387 9.0717 12.4037C8.89827 12.51 8.59359 12.7062 8.58086 12.7198C8.5725 12.7288 8.51797 12.7624 8.45979 12.7943C8.40144 12.8264 8.3469 12.8603 8.33854 12.8699C8.33017 12.8795 8.27563 12.9132 8.21728 12.9452C8.15892 12.9769 8.06167 13.0414 8.00095 13.0886C7.94023 13.1357 7.88169 13.1744 7.87115 13.1744C7.85133 13.1744 7.42685 13.4454 7.39922 13.4757C7.39085 13.4848 7.33305 13.5191 7.27051 13.5517C7.20797 13.5845 7.15689 13.6201 7.15689 13.6309C7.15689 13.642 7.13307 13.6589 7.10381 13.6687C7.04018 13.6899 6.96692 13.7357 6.8193 13.8467C6.75858 13.8924 6.70005 13.93 6.6895 13.93C6.66969 13.93 6.2452 14.201 6.21757 14.2311C6.20921 14.2404 6.1514 14.2745 6.08886 14.3073C6.02633 14.3399 5.97524 14.3757 5.97524 14.3865C5.97524 14.3974 5.95143 14.4145 5.92216 14.4241C5.85853 14.4455 5.78527 14.4913 5.63766 14.6023C5.57694 14.648 5.51677 14.6854 5.50404 14.6854C5.4915 14.6854 5.43641 14.7194 5.38169 14.761C5.32716 14.8025 5.26789 14.8366 5.25008 14.8366C5.23226 14.8366 5.21772 14.8486 5.21772 14.8631C5.21772 14.8777 5.17681 14.9066 5.12682 14.9272C5.07683 14.9479 5.03574 14.9733 5.03556 14.9838C5.03538 14.9942 4.98084 15.0288 4.91449 15.0605C4.84795 15.0923 4.7936 15.128 4.7936 15.1401C4.7936 15.1521 4.76978 15.1699 4.74051 15.1797C4.68907 15.1969 4.58181 15.2593 4.55127 15.2899C4.51473 15.3264 4.33966 15.4409 4.32039 15.4409C4.30894 15.4409 4.25477 15.475 4.20005 15.5166C4.14551 15.5581 4.08625 15.592 4.06843 15.592C4.05061 15.592 4.03607 15.604 4.03607 15.6186C4.03607 15.6332 3.99517 15.662 3.94517 15.6827C3.89518 15.7033 3.85428 15.7302 3.85428 15.7423C3.85428 15.7543 3.79974 15.7887 3.73321 15.8187C3.66649 15.8488 3.61195 15.8848 3.61195 15.8988C3.61195 15.9129 3.59814 15.9245 3.58141 15.9245C3.53269 15.9245 3.30909 16.0957 3.33017 16.1169C3.39598 16.1826 3.288 16.1197 3.21001 16.0468C3.15729 15.9978 3.10693 15.9648 3.09803 15.9739C3.08912 15.9828 3.12002 16.023 3.16674 16.0631C3.21364 16.1033 3.24437 16.1481 3.23528 16.1628C3.22619 16.1775 3.24728 16.1971 3.282 16.2061C3.3169 16.2152 3.33745 16.2353 3.32781 16.2509C3.31818 16.2663 3.33726 16.3033 3.37035 16.3331C3.40326 16.3628 3.43016 16.4043 3.43016 16.4252C3.43016 16.446 3.47215 16.4983 3.52342 16.5414C3.57468 16.5844 3.60613 16.6196 3.59341 16.6196C3.58068 16.6196 3.60013 16.6473 3.63649 16.6812C3.67303 16.7151 3.70285 16.7626 3.70285 16.7869C3.70285 16.8112 3.72321 16.8312 3.7483 16.8312C3.7732 16.8312 3.79374 16.8515 3.79374 16.8765C3.79374 16.9014 3.80738 16.9218 3.8241 16.9218C3.84065 16.9218 3.85428 16.9414 3.85428 16.9655C3.85428 16.9897 3.87828 17.0234 3.90736 17.0403C3.93645 17.0571 3.95117 17.0714 3.9399 17.072C3.92881 17.0725 3.95608 17.1117 4.00062 17.1592C4.1137 17.2796 4.21586 17.4053 4.20041 17.4053C4.19332 17.4053 4.21495 17.4325 4.24822 17.4658C4.28149 17.499 4.30876 17.5405 4.30876 17.5583C4.30876 17.5759 4.32239 17.5819 4.33912 17.5715C4.35584 17.5612 4.36948 17.5741 4.36948 17.6C4.36948 17.6259 4.38311 17.6472 4.39965 17.6472C4.41638 17.6472 4.43001 17.6684 4.43001 17.6943C4.43001 17.7224 4.4442 17.7326 4.46546 17.7195C4.48946 17.7046 4.49455 17.7142 4.48092 17.7494C4.4691 17.7802 4.4731 17.7938 4.49092 17.7828C4.50746 17.7726 4.52091 17.7864 4.52091 17.8132C4.52091 17.843 4.53491 17.8537 4.55636 17.8403C4.58018 17.8258 4.58545 17.835 4.57254 17.8684C4.56199 17.8959 4.56309 17.917 4.57508 17.9152C4.62635 17.9075 4.67198 17.9208 4.66634 17.9418C4.65471 17.9855 4.70743 18.1012 4.73197 18.086C4.74579 18.0774 4.76469 18.0909 4.77433 18.1157C4.79196 18.1614 4.88449 18.1801 4.88449 18.138C4.88449 18.1255 4.92576 18.097 4.97612 18.0747C5.02647 18.0524 5.08428 18.0185 5.10483 17.9993C5.12537 17.9801 5.19318 17.9375 5.25571 17.9046C5.31807 17.8718 5.36933 17.8376 5.36933 17.8285C5.36933 17.8194 5.42042 17.7855 5.48295 17.7532C5.54531 17.721 5.6462 17.6568 5.70692 17.6103C5.76764 17.5641 5.82617 17.5262 5.8369 17.5262C5.85508 17.5262 6.03233 17.4093 6.06614 17.3748C6.0745 17.3663 6.13249 17.3327 6.19485 17.2999C6.25738 17.2673 6.30847 17.2316 6.30847 17.2207C6.30847 17.2098 6.33246 17.1927 6.36155 17.1831C6.417 17.1645 6.52498 17.1005 6.55098 17.0705C6.55934 17.0611 6.61369 17.027 6.67205 16.9951C6.7304 16.963 6.82785 16.8995 6.88857 16.8539C6.94928 16.8082 7.00873 16.7706 7.02055 16.7706C7.03236 16.7706 7.09181 16.7318 7.15253 16.6841C7.21324 16.6366 7.31069 16.5735 7.36904 16.544C7.42722 16.5144 7.48175 16.4819 7.49011 16.4718C7.51465 16.4419 7.62228 16.3775 7.67954 16.3583C7.70863 16.3485 7.73263 16.3316 7.73263 16.3207C7.73263 16.3099 7.78371 16.2741 7.84624 16.2413C7.9086 16.2087 7.96659 16.175 7.97495 16.1666C8.00877 16.1322 8.18601 16.0152 8.20419 16.0152C8.21492 16.0152 8.27345 15.9762 8.33417 15.9287C8.39489 15.881 8.49233 15.8179 8.55069 15.7884C8.60886 15.7588 8.6634 15.7254 8.67176 15.714C8.68012 15.7026 8.7343 15.6671 8.79211 15.6351C8.84991 15.6031 8.91136 15.5659 8.92845 15.5525C8.99262 15.5024 9.37493 15.2596 9.38984 15.2596C9.39838 15.2596 9.4551 15.2206 9.51582 15.1731C9.57654 15.1254 9.67271 15.0629 9.72942 15.0339C9.95612 14.9182 10.0559 14.8029 10.0779 14.6313C10.1025 14.438 10.137 10.5754 10.1141 10.5754C10.1041 10.5754 10.095 10.7759 10.0941 11.0211Z" fill="#FC8C1C"/>
<path fill-rule="evenodd" clip-rule="evenodd" d="M3.13447 0.0181979C3.11356 0.026539 3.10411 0.0457583 3.11356 0.0609897C3.12302 0.0762212 3.11538 0.0885502 3.09684 0.0885502C3.07812 0.0885502 3.07066 0.101062 3.08011 0.116293C3.08957 0.131525 3.08157 0.182478 3.0623 0.229623C3.04303 0.276768 3.02176 0.376498 3.01503 0.451204C3.00831 0.526093 2.98976 0.600258 2.97395 0.616033C2.95813 0.631808 2.94522 0.717213 2.94522 0.805882C2.94522 0.921206 2.93232 0.971795 2.89978 0.984307C2.87014 0.99573 2.85433 1.0427 2.85433 1.1194C2.85433 1.18413 2.84288 1.23708 2.82906 1.23708C2.81506 1.23708 2.80179 1.28622 2.79943 1.34624C2.79725 1.40644 2.78179 1.47208 2.76507 1.49202C2.74834 1.51215 2.72907 1.58867 2.72235 1.66229C2.71544 1.73591 2.69563 1.83219 2.67799 1.87607C2.66054 1.92014 2.65436 1.9642 2.66436 1.97417C2.68399 1.99376 2.58491 2.32142 2.5451 2.36874C2.53201 2.38452 2.5211 2.44653 2.5211 2.50637C2.5211 2.56621 2.50638 2.62967 2.48856 2.64762C2.47075 2.66539 2.45366 2.74971 2.45075 2.83493C2.44784 2.92016 2.43675 2.98978 2.42621 2.98978C2.41548 2.98978 2.39749 3.06467 2.38603 3.15606C2.37458 3.24745 2.35404 3.32234 2.34022 3.32234C2.32641 3.32234 2.30714 3.38689 2.2975 3.46577C2.28078 3.60122 2.26114 3.71147 2.24733 3.74538C2.24405 3.75372 2.24296 3.77131 2.24533 3.78436C2.24751 3.7976 2.23587 3.83314 2.21951 3.86378C2.20315 3.89425 2.1837 3.98255 2.17661 4.05998C2.16934 4.13722 2.15116 4.21719 2.13607 4.2375C2.12116 4.25763 2.10498 4.32091 2.10008 4.37785C2.09517 4.43478 2.07081 4.51239 2.04608 4.55029C2.02118 4.58818 2.01063 4.63479 2.02245 4.65401C2.03427 4.67323 2.0299 4.69771 2.01245 4.70841C1.99518 4.7191 1.96591 4.823 1.94773 4.93923C1.92955 5.05547 1.90701 5.19817 1.89756 5.25637C1.88829 5.31458 1.86902 5.38947 1.85484 5.42265C1.82739 5.48612 1.80048 5.59872 1.77339 5.76264C1.7643 5.81668 1.74522 5.86092 1.73104 5.86092C1.71668 5.86092 1.71286 5.88123 1.72231 5.90625C1.73195 5.9311 1.72813 5.95159 1.71377 5.95159C1.69941 5.95159 1.68613 6.0223 1.6845 6.10879C1.68286 6.19728 1.66632 6.2709 1.64687 6.27743C1.62651 6.28414 1.61215 6.35613 1.61215 6.45024C1.61215 6.5389 1.59942 6.61597 1.58379 6.62141C1.56815 6.62703 1.54979 6.66547 1.54306 6.70699C1.53616 6.7487 1.5158 6.81869 1.49744 6.86293C1.47926 6.907 1.44926 7.05659 1.43108 7.19531C1.41272 7.33402 1.38945 7.46784 1.37909 7.49287C1.35746 7.546 1.34564 7.60039 1.33328 7.70429C1.32837 7.746 1.30728 7.79786 1.28637 7.8198C1.26565 7.84174 1.24856 7.8907 1.24856 7.92841C1.24856 7.96631 1.22166 8.07747 1.18875 8.17556C1.15585 8.27384 1.12858 8.42996 1.12804 8.5228C1.12767 8.61564 1.11785 8.70105 1.10622 8.71265C1.09477 8.72408 1.08222 8.75436 1.0784 8.77975C1.07277 8.81837 1.0255 8.96959 0.951878 9.18519C0.933699 9.23868 0.917155 9.35165 0.912247 9.45718C0.910247 9.49871 0.896794 9.5473 0.882433 9.56507C0.867889 9.58302 0.851893 9.65102 0.846621 9.71648C0.841349 9.78194 0.825351 9.85447 0.810807 9.87768C0.796446 9.90089 0.779357 9.96816 0.772813 10.0271C0.766268 10.086 0.746273 10.152 0.728458 10.1734C0.71046 10.195 0.703368 10.2128 0.712458 10.2128C0.721729 10.2128 0.715367 10.2568 0.698461 10.3109C0.681554 10.3649 0.661375 10.4499 0.653376 10.4998C0.645377 10.5497 0.633197 10.6177 0.626289 10.6509C0.588112 10.8344 0.562662 10.9985 0.572297 10.9985C0.578478 10.9985 0.560845 11.0329 0.533213 11.075C0.50558 11.1171 0.490309 11.1589 0.499398 11.1678C0.508488 11.1769 0.502306 11.2275 0.485582 11.2802C0.468857 11.333 0.437045 11.4511 0.414503 11.5424C0.392142 11.6338 0.358873 11.7631 0.340694 11.8295C0.289792 12.0152 0.269797 12.3584 0.30961 12.3584C0.328152 12.3584 0.335422 12.3711 0.325787 12.3865C0.283975 12.4538 0.367419 12.4393 0.451043 12.3646C0.627018 12.2077 0.703734 12.1468 0.726094 12.1466C0.738456 12.1464 0.802808 12.0853 0.868799 12.0106C0.934971 11.9359 0.997146 11.8748 1.00696 11.8748C1.01678 11.8748 1.0904 11.8139 1.17076 11.7394C1.25093 11.6647 1.35764 11.5729 1.40781 11.5354C1.45799 11.4977 1.56397 11.4057 1.64323 11.3308C1.72268 11.2561 1.85993 11.1337 1.94846 11.0588C2.03699 10.9841 2.18079 10.8568 2.26787 10.776C2.35513 10.6951 2.45784 10.6073 2.49638 10.5807C2.53492 10.554 2.64454 10.4568 2.73998 10.3649C2.83542 10.273 2.95759 10.1636 3.0114 10.1221C3.06503 10.0806 3.12974 10.0227 3.1552 9.99355C3.18046 9.96453 3.21264 9.94078 3.22664 9.94078C3.24064 9.94078 3.32317 9.86934 3.41007 9.78212C3.49678 9.69472 3.60058 9.60297 3.64058 9.57813C3.73693 9.51793 3.9149 9.33878 3.9149 9.30179C3.9149 9.28547 3.92599 9.27912 3.93944 9.28746C3.95308 9.2958 4.02289 9.24902 4.09469 9.18356C4.16668 9.11792 4.21359 9.06388 4.19886 9.06334C4.18432 9.0628 4.19959 9.04666 4.23304 9.02744C4.26631 9.00822 4.29467 8.99842 4.29612 9.00568C4.29739 9.01293 4.34848 8.96615 4.40974 8.90141C4.47082 8.83668 4.52081 8.79371 4.52081 8.80549C4.52081 8.81746 4.58862 8.75472 4.67152 8.66623C4.7546 8.57775 4.83459 8.50521 4.84968 8.50521C4.87385 8.50521 4.94493 8.44302 5.20562 8.19406C5.24562 8.15598 5.27834 8.13313 5.27834 8.14329C5.27834 8.15362 5.33706 8.10321 5.40886 8.03141C5.65065 7.78952 5.91443 7.55325 5.94261 7.55325C5.95806 7.55325 6.05404 7.47201 6.15603 7.37283C6.25801 7.27364 6.38163 7.16865 6.4309 7.13964C6.48017 7.11063 6.52052 7.06947 6.52052 7.04807C6.52052 7.02667 6.53761 7.00927 6.5587 7.00927C6.57961 7.00927 6.61378 6.98207 6.63469 6.94888C6.65541 6.91552 6.69195 6.88832 6.71577 6.88832C6.7394 6.88832 6.7674 6.86112 6.77812 6.82794C6.78867 6.79476 6.8103 6.76756 6.82611 6.76756C6.84193 6.76756 6.9012 6.71987 6.95791 6.66166C7.01445 6.60345 7.06844 6.55595 7.07771 6.55595C7.08699 6.55595 7.15443 6.49811 7.22769 6.42757C7.30077 6.35685 7.42585 6.24461 7.50529 6.17824C7.74289 5.97969 7.88778 5.85149 7.99231 5.74759C8.04666 5.69356 8.09956 5.64931 8.10993 5.64931C8.12029 5.64931 8.15901 5.62103 8.19573 5.58657C8.23264 5.55212 8.33535 5.46037 8.42406 5.38258C8.51296 5.30497 8.64639 5.18348 8.72075 5.11295C8.7951 5.04223 8.86891 4.98438 8.8849 4.98438C8.90108 4.98438 8.91418 4.97097 8.91418 4.95447C8.91418 4.93796 8.96162 4.8939 9.0198 4.85637C9.07797 4.81865 9.1256 4.77332 9.12578 4.75537C9.12596 4.73742 9.15978 4.70478 9.20086 4.68284C9.24195 4.6609 9.26849 4.63134 9.25976 4.6172C9.25103 4.60305 9.26412 4.59163 9.28885 4.59163C9.31375 4.59163 9.35538 4.57023 9.38156 4.54412C9.40774 4.51801 9.42919 4.50441 9.42919 4.51384C9.42919 4.52327 9.45428 4.50731 9.485 4.4783C9.51572 4.44911 9.53536 4.4152 9.52863 4.40269C9.5219 4.39018 9.52972 4.38002 9.54608 4.38002C9.56226 4.38002 9.62189 4.33578 9.67861 4.28174C9.81204 4.15463 10.3356 3.6966 10.5318 3.53558C10.5632 3.50965 10.6485 3.42878 10.7212 3.3557C10.7937 3.28263 10.8532 3.23222 10.8532 3.24346C10.8532 3.25489 10.883 3.23639 10.9195 3.20248C11.0044 3.1236 11.0231 3.12505 11.108 3.21644C11.1468 3.25815 11.1891 3.29206 11.2022 3.29206C11.2153 3.29206 11.2818 3.34591 11.3502 3.41174C11.6281 3.67937 11.7354 3.77566 11.7558 3.77566C11.7961 3.77566 11.943 3.91764 11.9232 3.9374C11.9125 3.9481 11.9272 3.95699 11.9559 3.95699C11.9846 3.95699 11.9997 3.97058 11.9894 3.98708C11.9792 4.00377 11.9846 4.01737 12.0017 4.01737C12.0188 4.01737 12.0799 4.06161 12.1372 4.11565C12.3217 4.28918 12.5671 4.49807 12.6965 4.59163C12.766 4.64168 12.8227 4.69607 12.8227 4.71258C12.8227 4.72908 12.844 4.74268 12.87 4.74268C12.8958 4.74268 12.9087 4.75628 12.8983 4.77296C12.8881 4.78946 12.8925 4.80306 12.9083 4.80306C12.9241 4.80306 13.0145 4.87795 13.1092 4.96933C13.2037 5.06072 13.3008 5.13561 13.3246 5.13561C13.3484 5.13561 13.3646 5.15248 13.3604 5.17333C13.3563 5.19418 13.3699 5.20778 13.3908 5.20361C13.4115 5.19944 13.4286 5.21866 13.4286 5.2464C13.4286 5.27415 13.4364 5.28902 13.4461 5.27941C13.4611 5.26417 13.5991 5.3775 13.8047 5.5737C13.8395 5.60706 13.8782 5.63082 13.8907 5.62665C13.9031 5.62248 13.9134 5.63372 13.9134 5.65149C13.9134 5.6941 13.9907 5.77026 14.0342 5.77026C14.0531 5.77026 14.0587 5.78585 14.0469 5.80507C14.0345 5.82484 14.0383 5.83191 14.0558 5.82103C14.0727 5.81069 14.1701 5.88322 14.2727 5.98223C14.375 6.08123 14.4588 6.15467 14.4588 6.14524C14.4588 6.13581 14.495 6.17117 14.5394 6.22376C14.5837 6.27634 14.6519 6.33146 14.691 6.34633C14.7299 6.36102 14.7617 6.3962 14.7617 6.4243C14.7617 6.45241 14.77 6.4671 14.78 6.45694C14.7902 6.44697 14.818 6.45495 14.842 6.47471C14.8998 6.52222 15.2218 6.82322 15.419 7.0138C15.5058 7.09757 15.591 7.15705 15.6087 7.14617C15.6265 7.13529 15.6536 7.15777 15.669 7.19622C15.6845 7.23466 15.6981 7.25551 15.699 7.24245C15.7001 7.2294 15.7286 7.23339 15.7624 7.25152C15.7963 7.26947 15.8181 7.29377 15.811 7.30537C15.8041 7.31716 15.8174 7.34418 15.8404 7.36557C15.8637 7.38697 15.8828 7.39658 15.8828 7.38697C15.8828 7.37736 15.9019 7.38715 15.9252 7.40855C15.9482 7.42994 15.9599 7.45986 15.9506 7.47473C15.9415 7.48978 15.9493 7.49268 15.9681 7.48108C15.987 7.46947 16.0319 7.49414 16.0682 7.53584C16.1046 7.57755 16.1482 7.60311 16.1651 7.59259C16.1837 7.58117 16.1886 7.59314 16.1773 7.62233C16.1635 7.65824 16.1715 7.66603 16.2075 7.65243C16.2398 7.63992 16.2489 7.64554 16.2346 7.66857C16.22 7.69233 16.2298 7.69722 16.2649 7.6838C16.2982 7.67093 16.3096 7.67564 16.2967 7.69649C16.2844 7.71626 16.2975 7.72533 16.3296 7.71916C16.3587 7.71354 16.392 7.70792 16.4033 7.70665C16.4145 7.70538 16.4418 7.68725 16.4638 7.66658C16.486 7.64572 16.5551 7.60184 16.6176 7.56902C16.68 7.5362 16.7312 7.5003 16.7312 7.48942C16.7312 7.47854 16.755 7.46168 16.7841 7.45188C16.8479 7.43049 16.921 7.38479 17.0686 7.27364C17.1295 7.22794 17.1877 7.19059 17.1982 7.19059C17.2226 7.19059 17.4607 7.03646 17.5135 6.9866C17.5355 6.96593 17.5653 6.94888 17.5795 6.94888C17.5938 6.94888 17.624 6.93184 17.6467 6.91098C17.7071 6.85586 17.7991 6.79856 17.8598 6.77825C17.8889 6.76846 17.9129 6.74997 17.9129 6.73728C17.9129 6.72458 17.9367 6.70609 17.9658 6.6963C18.0296 6.67508 18.1027 6.62921 18.2503 6.51823C18.3112 6.47254 18.3712 6.435 18.3839 6.435C18.3966 6.435 18.4517 6.4011 18.5062 6.35957C18.561 6.31787 18.6202 6.28396 18.638 6.28396C18.6557 6.28396 18.6702 6.27126 18.6702 6.25585C18.6702 6.24026 18.6975 6.21904 18.7307 6.20852C18.7638 6.19801 18.8087 6.17317 18.8304 6.15358C18.8893 6.10009 18.9816 6.04261 19.0414 6.02267C19.0705 6.01287 19.0945 5.99293 19.0945 5.97824C19.0945 5.96355 19.1072 5.95159 19.1229 5.95159C19.1385 5.95159 19.2409 5.8903 19.3503 5.81559C19.4599 5.7407 19.5583 5.67959 19.5692 5.67959C19.5799 5.67959 19.6333 5.6455 19.6879 5.60398C19.7426 5.56246 19.8019 5.52837 19.8197 5.52837C19.8373 5.52837 19.8519 5.5164 19.8519 5.50189C19.8519 5.4872 19.8928 5.45837 19.9427 5.4377C19.9927 5.41703 20.0336 5.38983 20.0336 5.37714C20.0336 5.36445 20.0627 5.3465 20.0984 5.33725C20.1498 5.32383 20.1585 5.30642 20.1409 5.25075C20.0953 5.10587 20.0876 5.01467 20.1211 5.01467C20.1396 5.01467 20.1547 4.99091 20.1544 4.96172C20.154 4.91657 20.1496 4.91548 20.1245 4.95429C20.1084 4.97913 20.0933 4.98928 20.0909 4.97695C20.0764 4.8988 20.0782 4.87505 20.1011 4.84404C20.1164 4.82337 20.1082 4.79091 20.0805 4.76335C20.0456 4.72871 20.0435 4.71366 20.0718 4.70224C20.1007 4.69045 20.1009 4.68646 20.0725 4.68465C20.0522 4.68338 20.0435 4.66181 20.0531 4.63696C20.0629 4.61122 20.0538 4.59163 20.0318 4.59163C20.0107 4.59163 20.0011 4.58383 20.0107 4.57422C20.0204 4.56461 20.0149 4.51366 19.9987 4.46089C19.9826 4.40813 19.9655 4.33632 19.9607 4.30151C19.956 4.26669 19.9424 4.22263 19.9306 4.20341C19.9186 4.18401 19.926 4.16841 19.9471 4.16841C19.9767 4.16841 19.9771 4.16043 19.9489 4.13215C19.9289 4.1122 19.9126 4.0578 19.9126 4.01138C19.9126 3.96478 19.9 3.9267 19.8849 3.9267C19.8697 3.9267 19.8609 3.89243 19.8657 3.85036C19.8702 3.80848 19.8622 3.76677 19.8479 3.75789C19.8335 3.749 19.8217 3.70258 19.8217 3.65471C19.8217 3.60684 19.808 3.55915 19.7913 3.549C19.7746 3.53866 19.761 3.48427 19.761 3.42805C19.761 3.37184 19.7491 3.31853 19.7348 3.30965C19.7204 3.30076 19.711 3.26268 19.7139 3.22479C19.7168 3.18707 19.7077 3.12361 19.6937 3.0839C19.6799 3.04419 19.6606 2.96259 19.6512 2.90257C19.6417 2.84255 19.6253 2.77981 19.615 2.76313C19.6046 2.74663 19.5924 2.70982 19.5881 2.68135C19.5837 2.65306 19.545 2.49839 19.5021 2.33773C19.4592 2.17708 19.4306 2.02857 19.4386 2.00772C19.4466 1.98687 19.4346 1.9341 19.4119 1.89058C19.3894 1.84688 19.3785 1.81116 19.3877 1.81116C19.3972 1.81116 19.3861 1.78813 19.3632 1.76002C19.3405 1.73192 19.337 1.71814 19.3559 1.72938C19.3783 1.7428 19.3752 1.7069 19.3468 1.62475C19.323 1.55603 19.2974 1.43871 19.2899 1.36382C19.2823 1.28912 19.2609 1.20952 19.2421 1.18721C19.2236 1.16473 19.2163 1.14642 19.2263 1.14642C19.2363 1.14642 19.231 1.11142 19.2149 1.06863C19.1985 1.02583 19.1767 0.92048 19.1663 0.83435C19.156 0.748401 19.1349 0.669887 19.1194 0.660095C19.104 0.650122 19.0936 0.629813 19.0965 0.614763C19.0992 0.599532 19.0992 0.580492 19.0963 0.572151C19.0934 0.56381 19.0854 0.503791 19.0785 0.438513C19.0718 0.373417 19.054 0.312128 19.0391 0.302518C19.0243 0.292907 19.016 0.260268 19.0207 0.229805C19.0254 0.199524 19.0029 0.148389 18.9709 0.116476C18.9389 0.0845622 18.9229 0.0582701 18.9354 0.0579075C18.9478 0.0577262 18.9376 0.0443077 18.9127 0.0281696C18.866 -0.00193074 3.20973 -0.0119024 3.13447 0.0181979ZM9.89349 5.9592C9.86313 5.99673 9.80277 6.05005 9.75951 6.07779C9.71624 6.10553 9.62771 6.17697 9.56262 6.23681C9.49754 6.29647 9.37792 6.40291 9.29666 6.47326C9.2154 6.54362 9.09815 6.65223 9.03616 6.71461C8.97416 6.77699 8.90999 6.82794 8.89381 6.82794C8.87745 6.82794 8.82491 6.87472 8.7771 6.93184C8.72929 6.98896 8.67912 7.02903 8.66567 7.02069C8.65203 7.01235 8.63276 7.02667 8.62276 7.0526C8.61276 7.07871 8.58731 7.09993 8.56604 7.09993C8.54477 7.09993 8.5195 7.12985 8.50987 7.16666C8.50023 7.20329 8.48442 7.22541 8.4746 7.21562C8.46497 7.20601 8.40516 7.25079 8.34189 7.31516C8.27845 7.37972 8.21482 7.4323 8.20028 7.4323C8.18574 7.4323 8.1461 7.45914 8.11229 7.49178C7.85378 7.74092 7.65745 7.92043 7.56237 7.99478C7.50074 8.04283 7.41912 8.11264 7.38076 8.15018C7.3424 8.18753 7.29677 8.21817 7.27932 8.21817C7.26187 8.21817 7.25114 8.23449 7.25533 8.25444C7.25951 8.27457 7.24696 8.29161 7.22751 8.29234C7.20806 8.29306 7.16588 8.32407 7.13352 8.36106C7.10135 8.39823 7.06608 8.41981 7.05517 8.40893C7.04445 8.39823 7.03554 8.41437 7.03554 8.44483C7.03554 8.4753 7.02736 8.49198 7.01736 8.482C7.00736 8.47185 6.94592 8.51628 6.88102 8.58028C6.81612 8.64447 6.76285 8.68999 6.76285 8.68128C6.76285 8.67276 6.69595 8.73495 6.61415 8.81963C6.53234 8.90431 6.45126 8.97358 6.43381 8.97358C6.41654 8.97358 6.38836 8.99752 6.37145 9.02653C6.35455 9.05554 6.34019 9.07005 6.33964 9.05863C6.3391 9.0472 6.2562 9.11737 6.1553 9.21475C6.05423 9.31194 5.95206 9.39916 5.92806 9.40841C5.90388 9.41747 5.88425 9.43905 5.88425 9.45627C5.88425 9.47332 5.86716 9.48765 5.84644 9.48819C5.82553 9.48855 5.74173 9.5629 5.65992 9.65338C5.5783 9.74368 5.49994 9.81059 5.48576 9.80189C5.47158 9.79318 5.46013 9.79935 5.46013 9.81548C5.46013 9.83162 5.37851 9.90397 5.27888 9.97596C5.17944 10.0479 5.09 10.1301 5.08055 10.1582C5.07091 10.1865 5.03965 10.2171 5.01092 10.2262C4.98238 10.2353 4.87403 10.3208 4.77023 10.4166C4.42628 10.7335 4.38465 10.7687 4.36084 10.7624C4.34793 10.7589 4.32866 10.7801 4.31811 10.8093C4.2963 10.8699 4.18813 10.9829 4.1865 10.9468C4.18595 10.9337 4.15868 10.9549 4.12596 10.9943C4.09324 11.0335 4.06633 11.0554 4.06633 11.0431C4.06633 11.0306 4.03034 11.0563 3.98653 11.1002C3.94253 11.1439 3.89472 11.1798 3.88036 11.1798C3.866 11.1798 3.85764 11.1961 3.86182 11.2162C3.866 11.2362 3.84891 11.2538 3.82401 11.2554C3.79892 11.2569 3.78183 11.2744 3.78601 11.2946C3.79019 11.3145 3.77947 11.3308 3.7622 11.3308C3.72911 11.3308 3.67457 11.3773 3.43025 11.6137C3.3468 11.6944 3.27863 11.7524 3.27863 11.7424C3.27863 11.7325 3.23627 11.7684 3.18464 11.8222C3.1332 11.8761 3.08539 11.9169 3.07866 11.9127C3.06666 11.9053 2.93995 12.0177 2.70399 12.2451C2.63945 12.3075 2.57673 12.3584 2.56474 12.3584C2.55274 12.3584 2.50238 12.4059 2.45275 12.4638C2.40312 12.5218 2.35149 12.5624 2.33804 12.5541C2.32459 12.5459 2.26332 12.6003 2.20188 12.675C2.14043 12.7499 2.07899 12.8043 2.06554 12.796C2.05208 12.7876 2.01173 12.8217 1.97591 12.8718C1.94028 12.9218 1.89192 12.9628 1.86847 12.9628C1.8452 12.9628 1.79612 13.003 1.75976 13.0524C1.72322 13.1015 1.68286 13.1352 1.66995 13.1272C1.65705 13.1193 1.61015 13.1601 1.56597 13.2179C1.5218 13.2758 1.45926 13.3314 1.42726 13.3416C1.39509 13.3517 1.37673 13.3728 1.38618 13.3882C1.39581 13.4036 1.38381 13.4161 1.35964 13.4161C1.33546 13.4161 1.30674 13.4522 1.29546 13.4964C1.2751 13.5777 1.32637 13.7487 1.37145 13.7487C1.38491 13.7487 1.40363 13.7724 1.41308 13.8014C1.42254 13.8306 1.47108 13.8979 1.52125 13.951C1.57124 14.0041 1.61215 14.0618 1.61215 14.0794C1.61215 14.097 1.62578 14.1113 1.64251 14.1113C1.65905 14.1113 1.67268 14.1258 1.67268 14.1436C1.67268 14.1614 1.68977 14.194 1.71068 14.2159C1.7314 14.2381 1.78267 14.2993 1.8243 14.3521C1.86593 14.4051 1.93064 14.4847 1.96809 14.5291C2.00554 14.5735 2.03626 14.621 2.03626 14.6344C2.03626 14.648 2.07735 14.6935 2.12734 14.7354C2.17734 14.7775 2.2106 14.8243 2.20133 14.8393C2.19188 14.8544 2.19642 14.8667 2.21115 14.8667C2.22606 14.8667 2.28187 14.9275 2.33531 15.0018C2.38876 15.076 2.44948 15.1543 2.4702 15.1755C2.49093 15.1969 2.54038 15.2618 2.58001 15.32C2.61964 15.3782 2.68054 15.4493 2.71544 15.4782C2.75016 15.5068 2.7678 15.5306 2.75434 15.5309C2.74107 15.5313 2.76689 15.5657 2.81179 15.6073C2.85669 15.6488 2.88523 15.6827 2.87505 15.6827C2.86469 15.6827 2.89578 15.7229 2.94377 15.7719C2.99176 15.8209 3.03994 15.8887 3.05066 15.9224C3.06139 15.9561 3.08121 15.9806 3.09484 15.9768C3.10847 15.973 3.16337 16.0084 3.21682 16.0555C3.27027 16.1025 3.3219 16.1331 3.33153 16.1235C3.34135 16.1137 3.33808 16.1059 3.32444 16.1059C3.31099 16.1059 3.35626 16.0651 3.42534 16.0152C3.49424 15.9654 3.56441 15.9246 3.58131 15.9246C3.59804 15.9246 3.61186 15.913 3.61186 15.8988C3.61186 15.8849 3.66639 15.8488 3.73311 15.8187C3.79965 15.7888 3.85418 15.7543 3.85418 15.7423C3.85418 15.7302 3.89509 15.7034 3.94508 15.6827C3.99507 15.662 4.03597 15.6332 4.03597 15.6187C4.03597 15.604 4.05052 15.592 4.06833 15.592C4.08615 15.592 4.14541 15.5581 4.19995 15.5166C4.25467 15.4749 4.30885 15.441 4.3203 15.441C4.33957 15.441 4.51463 15.3264 4.55117 15.2899C4.58172 15.2593 4.68897 15.1969 4.74042 15.1797C4.76969 15.1699 4.7935 15.1521 4.7935 15.1402C4.7935 15.128 4.84786 15.0923 4.91439 15.0606C4.98075 15.0288 5.03528 14.9942 5.03546 14.9839C5.03565 14.9733 5.07673 14.948 5.12672 14.9273C5.17672 14.9066 5.21762 14.8778 5.21762 14.8631C5.21762 14.8486 5.23216 14.8366 5.24998 14.8366C5.2678 14.8366 5.32706 14.8025 5.3816 14.761C5.43632 14.7195 5.4914 14.6854 5.50394 14.6854C5.51667 14.6854 5.57684 14.648 5.63756 14.6023C5.78518 14.4914 5.85844 14.4455 5.92206 14.4241C5.95133 14.4145 5.97515 14.3974 5.97515 14.3866C5.97515 14.3757 6.02623 14.34 6.08877 14.3073C6.1513 14.2745 6.20911 14.2404 6.21747 14.2312C6.24511 14.2011 6.66959 13.93 6.68941 13.93C6.69995 13.93 6.75849 13.8924 6.81921 13.8467C6.96682 13.7358 7.04008 13.6899 7.10371 13.6687C7.13298 13.6589 7.15679 13.642 7.15679 13.631C7.15679 13.6201 7.20788 13.5845 7.27041 13.5517C7.33295 13.5191 7.39076 13.4848 7.39912 13.4758C7.42675 13.4455 7.85124 13.1744 7.87105 13.1744C7.8816 13.1744 7.94014 13.1358 8.00085 13.0886C8.06157 13.0415 8.15883 12.9769 8.21718 12.9452C8.27554 12.9133 8.33008 12.8795 8.33844 12.8699C8.3468 12.8603 8.40134 12.8264 8.4597 12.7943C8.51787 12.7624 8.5724 12.7289 8.58077 12.7198C8.59349 12.7062 8.89818 12.51 9.07161 12.4037C9.09869 12.3871 9.21413 12.3113 9.32811 12.2353C9.4421 12.1591 9.58299 12.0708 9.64134 12.0387C9.69952 12.0068 9.75405 11.9738 9.76241 11.9655C9.86094 11.8674 9.98911 11.809 10.0387 11.8398C10.0867 11.8697 10.0905 11.8661 10.0696 11.8095C10.0564 11.7742 10.0556 11.6757 10.0678 11.5909C10.0865 11.4616 10.1353 10.1743 10.1367 9.7745C10.1442 7.70266 10.1171 6.02629 10.0749 5.96228C10.0164 5.87289 9.96402 5.87216 9.89349 5.9592ZM11.8325 5.97733C11.7545 6.10191 11.8156 10.671 11.8945 10.6014C11.9134 10.5847 12.0388 10.5005 12.1733 10.4146C12.7356 10.0545 12.9296 9.92809 12.9438 9.91231C12.9521 9.90288 13.0067 9.86916 13.065 9.83706C13.1577 9.78593 13.6264 9.48819 13.9891 9.24974C14.0558 9.20586 14.1149 9.15981 14.1205 9.14748C14.126 9.13496 14.1434 9.12481 14.159 9.12481C14.1958 9.12481 14.5604 8.89851 14.7111 8.78228C14.775 8.73296 14.8659 8.69126 14.9129 8.68962C14.9833 8.68709 14.9924 8.67875 14.9637 8.64357C14.9346 8.60803 14.9404 8.60349 14.996 8.61782C15.0562 8.63341 15.06 8.62852 15.0307 8.57376C15.0042 8.52444 14.9924 8.52045 14.9717 8.55399C14.9504 8.58844 14.936 8.58572 14.8917 8.5393C14.85 8.49597 14.8468 8.47947 14.8775 8.46822C14.9055 8.45789 14.8964 8.43867 14.8471 8.40403C14.779 8.35598 14.7664 8.35073 14.7004 8.34275C14.6833 8.34075 14.6566 8.30557 14.641 8.26459C14.6253 8.22361 14.561 8.15761 14.4977 8.11772C14.4346 8.07783 14.3372 8.00258 14.2814 7.95035C14.2254 7.89813 14.1667 7.85552 14.1509 7.85552C14.1349 7.85552 14.1294 7.84337 14.1385 7.82868C14.1476 7.81381 14.0909 7.74926 14.0122 7.68507C13.9336 7.62088 13.8335 7.53094 13.7896 7.48525C13.7458 7.43956 13.7009 7.4022 13.6898 7.4022C13.6789 7.4022 13.6248 7.35796 13.5697 7.30392C13.3957 7.13329 13.2459 7.00927 13.2137 7.00927C13.1966 7.00927 13.191 6.99566 13.2014 6.97898C13.2117 6.96248 13.2037 6.94888 13.1839 6.94888C13.1639 6.94888 13.1156 6.91407 13.0761 6.87164C13.0367 6.82939 13.0045 6.80437 13.0045 6.81615C13.0045 6.82812 12.9525 6.7846 12.889 6.7195C12.7751 6.60255 12.6633 6.50336 12.3808 6.26891C12.3006 6.20236 12.1804 6.09701 12.1137 6.03463C11.9805 5.91024 11.8867 5.89102 11.8325 5.97733Z" fill="#FCBB04"/>
<path fill-rule="evenodd" clip-rule="evenodd" d="M20.736 7.75501C20.7413 7.79943 20.766 7.84132 20.7911 7.84803C20.8204 7.85582 20.8247 7.85129 20.8033 7.83515C20.7849 7.82155 20.7724 7.77967 20.7755 7.74231C20.7785 7.70478 20.7687 7.67432 20.7536 7.67432C20.7387 7.67432 20.7307 7.71058 20.736 7.75501ZM20.7936 7.91022C20.7922 7.93198 20.7776 7.94159 20.7611 7.93144C20.7444 7.92092 20.7387 7.93234 20.7482 7.957C20.7591 7.98529 20.7398 8.00905 20.6947 8.02319C20.6562 8.03516 20.5762 8.08285 20.5173 8.12908C20.4584 8.17514 20.3595 8.23715 20.2977 8.26653C20.2357 8.29609 20.1852 8.32963 20.1852 8.34124C20.1852 8.35284 20.1612 8.37025 20.1321 8.38004C20.0805 8.39745 19.973 8.45983 19.9427 8.49029C19.9343 8.49863 19.8661 8.54505 19.7912 8.59328C19.7163 8.64151 19.618 8.70607 19.5727 8.73671C19.5276 8.76736 19.4776 8.79238 19.4616 8.79238C19.4458 8.79238 19.4282 8.80271 19.4226 8.81504C19.4089 8.84605 19.2531 8.95285 19.1275 9.01759C19.0708 9.04696 19.0094 9.08377 18.9912 9.09937C18.8676 9.2058 18.3696 9.50354 18.3345 9.49194C18.2987 9.48015 18.2993 9.48759 18.3369 9.53546C18.4002 9.61597 18.4353 9.63754 18.4689 9.61687C18.4847 9.60708 18.4891 9.61325 18.4783 9.63047C18.4676 9.64788 18.4791 9.67889 18.504 9.69938C18.5287 9.71987 18.5491 9.72984 18.5491 9.7215C18.5491 9.71316 18.6083 9.76248 18.681 9.8312C18.8057 9.94906 18.9443 10.0696 19.3353 10.4002C19.4278 10.4784 19.5473 10.5837 19.6009 10.6345C19.6547 10.6851 19.7131 10.7266 19.7307 10.7266C19.7483 10.7266 19.7702 10.7458 19.7792 10.7692C19.7883 10.7926 19.8287 10.8202 19.8692 10.8301C19.9096 10.8403 19.9427 10.862 19.9427 10.8784C19.9427 10.9513 20.1608 10.8718 20.2761 10.7569C20.2844 10.7485 20.3388 10.7155 20.3971 10.6836C20.4555 10.6515 20.51 10.616 20.5184 10.6046C20.5268 10.5933 20.5813 10.5598 20.6397 10.5302C20.6978 10.5007 20.7953 10.4376 20.856 10.3901C20.9167 10.3424 20.9752 10.3036 20.986 10.3036C21.0618 10.3036 21.251 10.1237 21.2314 10.0702C21.2239 10.0501 21.231 10.0254 21.2468 10.0156C21.2628 10.0058 21.2759 10.0143 21.2759 10.0348C21.2759 10.0551 21.2837 10.064 21.2932 10.0544C21.3028 10.045 21.291 9.99838 21.267 9.95124C21.2428 9.90391 21.2276 9.83863 21.2327 9.80581C21.2379 9.77318 21.229 9.73074 21.213 9.71152C21.197 9.6923 21.1925 9.65423 21.203 9.62703C21.2134 9.59965 21.2048 9.55667 21.1838 9.53147C21.1627 9.50608 21.1467 9.44515 21.1481 9.39583C21.1494 9.34651 21.1401 9.30626 21.1274 9.30626C21.1147 9.30626 21.1029 9.28921 21.1012 9.26836C21.0936 9.16899 21.0691 9.0145 21.0545 8.9737C21.0456 8.94886 21.0291 8.87416 21.018 8.80779C21.0069 8.74143 20.99 8.67452 20.9803 8.65928C20.9709 8.64387 20.9592 8.59618 20.9543 8.55321C20.9418 8.44332 20.7965 7.86217 20.7936 7.91022ZM16.7926 10.1449C16.7944 10.1864 16.8766 10.2773 16.89 10.2524C16.8973 10.239 16.8782 10.2042 16.8475 10.175C16.8168 10.146 16.792 10.1324 16.7926 10.1449ZM16.9231 10.3166C16.9322 10.3405 16.9304 10.3656 16.9187 10.3721C16.9071 10.3788 16.9135 10.3806 16.9326 10.3763C17.018 10.3565 16.992 10.408 16.8893 10.462C16.7742 10.5226 16.5746 10.6481 16.2767 10.847C16.1849 10.9083 16.0963 10.964 16.0796 10.9708C16.0631 10.9779 15.9505 11.0481 15.8296 11.127C15.7089 11.206 15.5111 11.3351 15.3904 11.4142C15.2695 11.4931 15.157 11.5629 15.1405 11.5692C15.1237 11.5756 15.0896 11.5984 15.0647 11.62C15.0396 11.6416 14.985 11.6775 14.9434 11.6996C14.873 11.7371 14.7547 11.8129 14.2011 12.1747C14.0844 12.2508 13.9754 12.3201 13.9588 12.3284C13.9421 12.3368 13.8466 12.3966 13.7467 12.4615C13.6467 12.5263 13.4967 12.6226 13.4134 12.6755C13.33 12.7284 13.1597 12.8387 13.0346 12.9203C12.9097 13.0019 12.7937 13.0755 12.7772 13.084C12.7604 13.0924 12.665 13.1522 12.565 13.2169C12.465 13.2819 12.3083 13.3821 12.2165 13.44C12.1249 13.498 12.0136 13.5702 11.9695 13.6006C11.8384 13.6904 11.8251 13.6373 11.8129 12.9758C11.8069 12.6447 11.8071 13.108 11.8135 14.0055C11.8275 16.0001 11.8404 16.1735 11.968 16.0821C11.9964 16.0618 12.04 16.036 12.0651 16.0248C12.09 16.0137 12.1173 15.9967 12.1256 15.9873C12.134 15.9776 12.1954 15.9345 12.262 15.8913C12.3287 15.848 12.4856 15.7463 12.6105 15.6652C12.7355 15.5842 12.8717 15.4995 12.9133 15.4774C12.955 15.4551 13.0095 15.4192 13.0346 15.3976C13.0597 15.376 13.0937 15.3532 13.1104 15.3468C13.1271 15.3405 13.2362 15.273 13.3527 15.1967C13.4694 15.1205 13.6672 14.9914 13.7921 14.9096C13.9172 14.828 14.033 14.7555 14.0497 14.7486C14.0663 14.7417 14.155 14.6859 14.2466 14.6248C14.3382 14.5635 14.4882 14.4659 14.5798 14.4079C14.6716 14.3499 14.8489 14.2356 14.9738 14.154C15.0988 14.0724 15.2146 13.9999 15.2314 13.993C15.2479 13.9861 15.3366 13.9305 15.4282 13.8692C15.5199 13.8079 15.6767 13.7062 15.7767 13.6429C15.9447 13.5366 16.303 13.3062 16.5948 13.117C16.6613 13.0739 16.7204 13.0284 16.726 13.0158C16.7315 13.0033 16.7497 12.9932 16.7664 12.9932C16.7829 12.9932 16.8738 12.9435 16.9684 12.8828C17.2178 12.7223 17.6363 12.4525 17.7764 12.3616C17.843 12.3183 17.9021 12.2728 17.9077 12.2603C17.9131 12.2479 17.9308 12.2376 17.9468 12.2376C17.9795 12.2376 18.2867 12.0472 18.4782 11.9081C18.6049 11.8162 18.6343 11.6936 18.5296 11.6936C18.5062 11.6936 18.474 11.6597 18.4582 11.6182C18.4423 11.5767 18.4154 11.5426 18.3987 11.5426C18.3818 11.5426 18.3013 11.478 18.2196 11.399C18.0569 11.2417 17.6755 10.8976 17.5376 10.7835C17.4896 10.744 17.3825 10.6461 17.2996 10.5661C17.2167 10.4862 17.1413 10.4283 17.132 10.4376C17.1227 10.4466 17.0962 10.427 17.0729 10.394C17.0496 10.3609 17.0102 10.3337 16.9851 10.3337C16.96 10.3337 16.948 10.3201 16.9584 10.3036C16.9686 10.2869 16.9611 10.2733 16.9417 10.2733C16.9222 10.2733 16.9138 10.2929 16.9231 10.3166ZM10.0957 14.1522C10.0957 14.764 10.0519 14.8694 9.72925 15.034C9.67253 15.063 9.57636 15.1256 9.51564 15.1733C9.45492 15.2208 9.39821 15.2598 9.38966 15.2598C9.37475 15.2598 8.99244 15.5026 8.92827 15.5526C8.91118 15.566 8.84974 15.6032 8.79193 15.6353C8.73412 15.6672 8.67994 15.7028 8.67158 15.7142C8.66322 15.7256 8.60868 15.759 8.55051 15.7885C8.49216 15.8181 8.39471 15.8812 8.334 15.9289C8.27328 15.9764 8.21474 16.0154 8.20402 16.0154C8.18584 16.0154 8.00859 16.1323 7.97478 16.1668C7.96641 16.1751 7.90842 16.2088 7.84607 16.2415C7.78353 16.2743 7.73245 16.31 7.73245 16.3209C7.73245 16.3318 7.70845 16.3486 7.67936 16.3584C7.6221 16.3777 7.51448 16.442 7.48994 16.4719C7.48157 16.4821 7.42704 16.5146 7.36887 16.5441C7.31051 16.5737 7.21307 16.6368 7.15235 16.6843C7.09163 16.732 7.03219 16.7708 7.02037 16.7708C7.00855 16.7708 6.94911 16.8083 6.88839 16.854C6.82767 16.8997 6.73023 16.9632 6.67187 16.9953C6.61352 17.0272 6.55916 17.0613 6.5508 17.0707C6.52481 17.1006 6.41682 17.1646 6.36137 17.1833C6.33229 17.1929 6.30829 17.2099 6.30829 17.2208C6.30829 17.2317 6.25721 17.2674 6.19467 17.3001C6.13232 17.3329 6.07432 17.3664 6.06596 17.375C6.03215 17.4094 5.8549 17.5264 5.83672 17.5264C5.826 17.5264 5.76746 17.5643 5.70674 17.6105C5.64602 17.6569 5.54513 17.7211 5.48278 17.7534C5.42024 17.7857 5.36916 17.8196 5.36916 17.8286C5.36916 17.8377 5.31789 17.872 5.25554 17.9048C5.193 17.9376 5.12519 17.9802 5.10465 17.9994C5.08411 18.0187 5.0263 18.0526 4.97594 18.0749C4.92558 18.0972 4.88432 18.1256 4.88432 18.1382C4.88432 18.1507 4.86305 18.161 4.83705 18.161C4.80906 18.161 4.79869 18.1469 4.81142 18.1262C4.82433 18.1055 4.81978 18.0994 4.80069 18.1111C4.78288 18.1222 4.76142 18.114 4.75288 18.0932C4.74452 18.0723 4.7367 18.0689 4.73561 18.0854C4.73452 18.1021 4.78797 18.1741 4.85432 18.2455C4.92086 18.3168 4.97521 18.3833 4.97521 18.3931C4.97521 18.4031 5.04775 18.5012 5.13646 18.6111C5.22517 18.7209 5.31044 18.8326 5.32589 18.8595C5.35607 18.9119 5.53549 19.1317 5.69474 19.3115C5.74892 19.3725 5.79327 19.4377 5.79327 19.4564C5.79327 19.4749 5.82054 19.5072 5.85381 19.528C5.88726 19.5487 5.91453 19.5837 5.91453 19.6056C5.91453 19.6274 5.92598 19.6383 5.94016 19.6296C5.95434 19.6209 5.98416 19.6475 6.00633 19.6891C6.08123 19.8285 6.21885 19.8067 6.41864 19.624C6.43845 19.6058 6.49681 19.5735 6.54807 19.5523C6.59952 19.5309 6.6417 19.5032 6.6417 19.4907C6.6417 19.478 6.66551 19.4595 6.6946 19.4499C6.74368 19.4334 6.82022 19.3886 6.89748 19.3309C7.00146 19.2533 7.35159 19.0374 7.37323 19.0374C7.38741 19.0374 7.39904 19.0254 7.39904 19.0109C7.39904 18.9962 7.43994 18.9674 7.48994 18.9467C7.53993 18.926 7.58083 18.8994 7.58083 18.8872C7.58083 18.8751 7.63537 18.8408 7.70209 18.8107C7.76881 18.7808 7.82334 18.7463 7.82334 18.7342C7.82334 18.722 7.84716 18.7041 7.87624 18.6943C7.92533 18.6778 8.00186 18.633 8.07912 18.5753C8.17711 18.5024 8.53269 18.282 8.55233 18.282C8.56524 18.282 8.58032 18.2716 8.58578 18.2593C8.59977 18.2277 8.75648 18.1208 8.88373 18.0557C8.94209 18.0259 8.99663 17.9931 9.00499 17.9829C9.01335 17.9728 9.04735 17.9479 9.08061 17.9278C9.11406 17.9075 9.25041 17.8217 9.38366 17.7371C9.51691 17.6524 9.65271 17.567 9.68544 17.5472C9.71798 17.5275 9.76324 17.4943 9.78597 17.4734C9.80869 17.4527 9.8365 17.4355 9.84796 17.4352C9.91304 17.4337 10.0656 17.2529 10.0676 17.1748C10.0694 17.0992 10.073 17.0957 10.0957 17.1487C10.1108 17.1835 10.1225 16.508 10.1232 15.5544C10.1241 14.6443 10.1181 13.8998 10.1101 13.8998C10.1023 13.8998 10.0957 14.0133 10.0957 14.1522Z" fill="#FC7026"/>
<path fill-rule="evenodd" clip-rule="evenodd" d="M10.1402 8.05194C10.1402 8.94951 10.1441 9.31235 10.1488 8.85831C10.1535 8.40408 10.1535 7.66971 10.1488 7.22636C10.1441 6.78284 10.1402 7.15438 10.1402 8.05194ZM20.947 8.45993C20.947 8.48477 20.9587 8.53246 20.973 8.56564C20.9894 8.60372 20.999 8.60935 20.999 8.58088C20.999 8.55585 20.9874 8.50834 20.973 8.47498C20.9567 8.4369 20.947 8.43128 20.947 8.45993ZM21.0059 8.73192C21.0068 8.75676 21.0194 8.80445 21.0336 8.83763L21.0597 8.8982L21.0614 8.83763C21.0623 8.80445 21.0498 8.75676 21.0336 8.73192C21.0076 8.69167 21.0045 8.69167 21.0059 8.73192ZM17.8826 9.16439C17.8826 9.16964 17.9269 9.21389 17.9811 9.26267L18.0795 9.35152L17.9906 9.25324C17.9077 9.16167 17.8826 9.14118 17.8826 9.16439ZM10.1375 10.1976C10.1375 10.3805 10.1426 10.4514 10.1486 10.3552C10.1546 10.2591 10.1546 10.1095 10.1484 10.0228C10.1422 9.93612 10.1373 10.0148 10.1375 10.1976ZM18.9337 10.1044C18.9806 10.1446 19.024 10.172 19.0306 10.1657C19.0453 10.151 18.9068 10.0338 18.8732 10.0324C18.8597 10.0319 18.887 10.0643 18.9337 10.1044ZM19.0642 10.192C19.0642 10.1972 19.1086 10.2415 19.1628 10.2902L19.2611 10.3789L19.1722 10.2808C19.0893 10.1892 19.0642 10.1686 19.0642 10.192ZM21.3697 10.3009C21.3681 10.3245 21.4001 10.4741 21.4404 10.6333C21.481 10.7927 21.5224 10.9619 21.5328 11.0096C21.5431 11.0573 21.5586 11.0894 21.5671 11.0808C21.584 11.064 21.497 10.6141 21.4675 10.5668C21.4577 10.5508 21.4322 10.4748 21.411 10.398C21.3897 10.3211 21.3712 10.2774 21.3697 10.3009ZM19.4907 10.5936C19.5311 10.6368 19.6187 10.7138 19.6854 10.7648C19.7596 10.8217 19.7361 10.7914 19.6247 10.6863C19.4347 10.5073 19.3647 10.4589 19.4907 10.5936ZM10.139 11.1798C10.139 11.5206 10.1433 11.66 10.1488 11.4895C10.1541 11.3193 10.1541 11.0404 10.1488 10.8701C10.1433 10.6997 10.139 10.8391 10.139 11.1798ZM19.9415 10.9758C20.0672 11.1093 20.0944 11.1332 20.0944 11.1106C20.0944 11.1057 20.0295 11.0411 19.9505 10.967L19.8065 10.8322L19.9415 10.9758ZM11.7698 11.0741C11.7702 11.1405 11.7764 11.1642 11.7836 11.1265C11.7909 11.089 11.7907 11.0346 11.7831 11.0058C11.7755 10.9768 11.7696 11.0076 11.7698 11.0741ZM17.9584 11.1354C18.2607 11.4165 18.3429 11.4863 18.3556 11.4736C18.3632 11.4662 18.2496 11.3615 18.1033 11.2413C17.9569 11.1211 17.8917 11.0734 17.9584 11.1354ZM20.1272 11.1405C20.1308 11.1758 20.4609 11.4589 20.4782 11.4417C20.4862 11.4337 20.4289 11.3681 20.3508 11.2959C20.1968 11.1537 20.1233 11.1026 20.1272 11.1405ZM21.5655 11.1722C21.5717 11.2014 21.6006 11.334 21.6295 11.4669C21.6586 11.6 21.6837 11.7155 21.6853 11.7238C21.6871 11.7322 21.6993 11.7842 21.7124 11.8395C21.7644 12.058 21.788 12.33 21.7529 12.3084C21.7404 12.3006 21.7222 12.3146 21.7126 12.3396C21.6891 12.4007 21.5408 12.3351 21.3799 12.1922C21.1274 11.9681 20.9232 11.7922 20.8803 11.7619C20.851 11.7412 20.7618 11.6636 20.6818 11.5893C20.6018 11.5149 20.5295 11.4611 20.5211 11.4694C20.5058 11.4846 20.6004 11.5731 20.8514 11.7788C20.9263 11.8399 21.0081 11.9129 21.0332 11.9409C21.1741 12.0974 21.6282 12.4491 21.6893 12.4491C21.84 12.4491 21.8598 12.2256 21.7484 11.7842C21.7084 11.6264 21.6598 11.4192 21.6406 11.324C21.6211 11.2286 21.5939 11.1436 21.5799 11.1351C21.5659 11.1263 21.5593 11.1432 21.5655 11.1722ZM11.7698 11.4368C11.7702 11.5031 11.7764 11.5269 11.7836 11.4892C11.7909 11.4516 11.7907 11.3972 11.7831 11.3684C11.7755 11.3394 11.7696 11.3702 11.7698 11.4368ZM18.5794 11.691C18.5794 11.7091 18.591 11.7238 18.6054 11.7238C18.6196 11.7238 18.665 11.7545 18.7065 11.7918C18.7479 11.8292 18.8146 11.887 18.8548 11.9202L18.9279 11.9808L18.8673 11.9093C18.7774 11.8034 18.5794 11.6535 18.5794 11.691ZM10.1304 15.562C10.1246 17.6146 10.1224 19.399 10.1255 19.5272C10.1315 19.7704 10.1092 19.8625 10.0623 19.7885C10.0432 19.7586 10.0361 19.7657 10.0357 19.8152C10.0354 19.8618 9.99518 19.9078 9.90646 19.963C9.62523 20.1381 9.44398 20.2612 9.43435 20.2834C9.42871 20.2962 9.41108 20.3066 9.3949 20.3066C9.3789 20.3066 9.28801 20.3575 9.19293 20.4199C9.09803 20.4821 9.00659 20.5399 8.98987 20.5485C8.96187 20.5626 8.88425 20.6123 8.4294 20.9075C8.33778 20.967 8.25816 21.0261 8.2527 21.039C8.24707 21.0516 8.22671 21.0625 8.20726 21.0629C8.1878 21.0634 8.02183 21.1644 7.83858 21.2874C7.65534 21.4103 7.50099 21.4992 7.49572 21.4847C7.49045 21.4703 7.46954 21.4649 7.44918 21.4725C7.40265 21.4905 7.27176 21.3652 7.19613 21.2303C7.17831 21.1985 7.13832 21.169 7.10723 21.1646C7.0587 21.1577 7.05706 21.1617 7.09633 21.1925C7.12123 21.2123 7.17813 21.2828 7.22267 21.3492C7.32702 21.5053 7.44682 21.6393 7.46536 21.6207C7.47354 21.6127 7.48009 21.6239 7.48009 21.6455C7.48009 21.6798 7.72969 22.0172 8.18708 22.6011C8.26198 22.6968 8.45176 22.9438 8.60865 23.1502C8.89315 23.5244 8.9306 23.5725 9.15839 23.8577C9.29837 24.0328 9.27928 24.0084 9.48707 24.2807C9.91246 24.8383 9.94046 24.87 10.0092 24.87C10.1632 24.87 10.1572 25.1524 10.1488 18.2449C10.143 13.2979 10.1386 12.6839 10.1304 15.562ZM19.0037 12.0551C19.0037 12.0712 19.0342 12.1004 19.0719 12.12C19.1397 12.1556 19.1397 12.1554 19.0822 12.0908C19.018 12.0188 19.0037 12.0123 19.0037 12.0551ZM19.376 12.3811C19.4629 12.46 19.5385 12.5351 19.5441 12.5478C19.5496 12.5603 19.5838 12.5849 19.6198 12.6022C19.6558 12.6196 19.59 12.5449 19.4733 12.4364C19.3565 12.328 19.2515 12.2388 19.2396 12.2384C19.228 12.2379 19.2893 12.3023 19.376 12.3811ZM19.8416 12.8011C19.9274 12.8818 20.0324 12.975 20.075 13.0082C20.1173 13.0415 20.1528 13.0856 20.1535 13.1064C20.1544 13.1273 20.1753 13.1442 20.2004 13.1442C20.2253 13.1442 20.2459 13.1639 20.2459 13.188C20.2459 13.2122 20.2695 13.245 20.2982 13.2611C20.3446 13.287 20.3411 13.2947 20.2679 13.3278C20.2224 13.3485 20.1853 13.3753 20.1853 13.3873C20.1853 13.3993 20.1613 13.4172 20.1322 13.4268C20.0808 13.4443 19.9735 13.5066 19.9428 13.5371C19.9345 13.5454 19.8799 13.5784 19.8217 13.6103C19.7634 13.6424 19.7089 13.6763 19.7005 13.686C19.6736 13.7168 19.4914 13.8394 19.4725 13.8394C19.4623 13.8394 19.4094 13.8733 19.3547 13.9148C19.3002 13.9565 19.246 13.9904 19.2344 13.9904C19.2133 13.9904 19.0326 14.1106 19.0037 14.1438C18.9953 14.1534 18.9408 14.1873 18.8824 14.2194C18.8241 14.2513 18.7695 14.2843 18.7612 14.2927C18.7388 14.315 18.6314 14.3808 18.5794 14.404C18.5545 14.4151 18.5272 14.4319 18.5188 14.4416C18.4918 14.4724 18.3098 14.5948 18.2909 14.5948C18.2807 14.5948 18.2278 14.6289 18.1731 14.6704C18.1185 14.7119 18.0644 14.746 18.0527 14.746C18.0316 14.746 17.8509 14.8662 17.822 14.8994C17.8137 14.9088 17.7591 14.9429 17.7008 14.9748C17.6424 15.0069 17.5879 15.0397 17.5795 15.0481C17.5572 15.0706 17.4497 15.1362 17.3977 15.1594C17.3728 15.1707 17.3456 15.1875 17.3372 15.1971C17.3101 15.228 17.1281 15.3504 17.1092 15.3504C17.0991 15.3504 17.0462 15.3845 16.9914 15.426C16.9369 15.4675 16.8774 15.5014 16.8596 15.5014C16.8418 15.5014 16.8225 15.5119 16.8171 15.5248C16.8022 15.5589 16.469 15.7734 16.4306 15.7734C16.4126 15.7734 16.3979 15.7855 16.3979 15.8002C16.3979 15.8149 16.3741 15.8349 16.345 15.8447C16.2912 15.8626 16.1834 15.9261 16.1556 15.956C16.1196 15.9948 15.7003 16.257 15.6743 16.257C15.6585 16.257 15.6409 16.2675 15.6354 16.2802C15.6238 16.307 15.2913 16.529 15.263 16.529C15.2526 16.529 15.2275 16.5435 15.2075 16.5613C15.1382 16.6224 14.5192 17.0126 14.4916 17.0126C14.4763 17.0126 14.4593 17.0229 14.4538 17.0358C14.4422 17.0625 14.1097 17.2846 14.0813 17.2846C14.0709 17.2846 14.0459 17.2989 14.0259 17.3167C13.9471 17.3858 13.3409 17.768 13.31 17.768C13.292 17.768 13.2769 17.7783 13.2763 17.7907C13.2758 17.8032 13.1662 17.8813 13.0326 17.9646C12.8991 18.0476 12.6635 18.1972 12.5092 18.2969C12.3548 18.3967 12.151 18.5281 12.0563 18.5892C11.9358 18.6668 11.8773 18.6895 11.8614 18.6647C11.8489 18.6453 11.8287 17.793 11.8164 16.7707C11.8042 15.7486 11.7895 14.8374 11.7838 14.746C11.778 14.6544 11.7744 16.8742 11.7755 19.6786L11.7775 24.7777L11.8451 24.8452L11.9129 24.9128L11.9962 24.8508C12.0418 24.8167 12.1205 24.7335 12.1707 24.6659C12.2421 24.5699 12.6426 24.0633 12.7859 23.8878C12.8153 23.8517 13.072 23.5184 13.3912 23.1021C13.5185 22.9358 13.6985 22.7039 13.7908 22.5866C13.8833 22.4693 13.993 22.3273 14.0346 22.2711C14.0764 22.2149 14.1857 22.0727 14.2776 21.9554C14.3698 21.8381 14.472 21.707 14.5049 21.6638C14.538 21.6207 14.6467 21.4796 14.7467 21.3505C14.8467 21.2212 14.9574 21.0756 14.9928 21.0272C15.0283 20.9786 15.0968 20.8953 15.1453 20.8419C15.1939 20.7885 15.2739 20.6888 15.3233 20.6203C15.3728 20.5515 15.4906 20.3952 15.5851 20.2727C15.6796 20.1501 15.8536 19.9205 15.9719 19.7626C16.0903 19.6048 16.2243 19.4302 16.2697 19.3749C16.3742 19.2478 16.4768 19.1162 16.7611 18.7446C16.886 18.5814 17.07 18.3443 17.1701 18.2175C17.2703 18.0908 17.4068 17.9158 17.4735 17.8287C17.5403 17.7419 17.6108 17.6538 17.6302 17.6331C17.6499 17.6126 17.7044 17.5413 17.7515 17.475C17.8604 17.3214 18.0593 17.0608 18.2912 16.7669C18.3914 16.6401 18.5456 16.4429 18.6337 16.3286C18.7219 16.2144 18.9097 15.9714 19.0511 15.7886C19.1926 15.6057 19.3553 15.395 19.4127 15.3201C19.5883 15.0914 20.249 14.2396 20.4646 13.9638C20.7465 13.6031 20.7456 13.5512 20.4535 13.2914C20.3344 13.1855 20.1991 13.0649 20.153 13.0234C19.7858 12.6928 19.5394 12.5171 19.8416 12.8011ZM5.30858 18.8862C5.34422 18.9361 5.38021 18.9769 5.38857 18.9769C5.39694 18.9769 5.37458 18.9361 5.33895 18.8862C5.30331 18.8364 5.26732 18.7956 5.25914 18.7956C5.25078 18.7956 5.27314 18.8364 5.30858 18.8862ZM5.71562 19.4076C5.76234 19.4699 5.80633 19.5209 5.81324 19.5209C5.83996 19.5209 5.76543 19.4115 5.6998 19.3542C5.64326 19.3051 5.64617 19.3147 5.71562 19.4076ZM6.00121 19.7853C6.03921 19.8393 6.07666 19.8835 6.08447 19.8835C6.11065 19.8835 6.03957 19.7731 5.98558 19.73C5.94777 19.6995 5.95213 19.7156 6.00121 19.7853ZM6.23518 20.0805C6.27953 20.1383 6.32026 20.1858 6.32589 20.1858C6.35134 20.1858 6.22827 20.0036 6.19373 19.9903C6.17228 19.982 6.191 20.0226 6.23518 20.0805ZM6.41624 20.3142C6.46496 20.3682 6.51532 20.4253 6.52786 20.4411C6.54241 20.4591 6.55095 20.4589 6.55095 20.4402C6.55095 20.4047 6.38188 20.2159 6.35007 20.2159C6.33753 20.2159 6.36734 20.2602 6.41624 20.3142ZM6.67293 20.6391C6.74274 20.7305 6.81437 20.8107 6.832 20.817C6.8689 20.8306 6.84927 20.8054 6.67003 20.6088L6.54604 20.4729L6.67293 20.6391ZM6.97125 21.0226C6.99016 21.0593 7.02016 21.0979 7.03779 21.1088C7.09814 21.1459 7.08451 21.1077 7.01052 21.0319C6.94362 20.9635 6.93999 20.9626 6.97125 21.0226Z" fill="#FC3146"/>
<path fill-rule="evenodd" clip-rule="evenodd" d="M21.146 9.4579C21.1549 9.49126 21.1763 9.52753 21.1938 9.53841C21.2138 9.55074 21.2182 9.53841 21.2052 9.50522C21.1942 9.47621 21.1851 9.43995 21.1851 9.42472C21.1851 9.40948 21.1727 9.39697 21.1576 9.39697C21.1425 9.39697 21.1372 9.42435 21.146 9.4579ZM21.2285 9.83741C21.2351 9.86933 21.2492 9.91792 21.2601 9.9453C21.271 9.97287 21.2661 10.0039 21.2491 10.0144C21.232 10.0249 21.224 10.0501 21.2314 10.0702C21.2511 10.1237 21.0618 10.3036 20.986 10.3036C20.9753 10.3036 20.9167 10.3424 20.856 10.3901C20.7953 10.4376 20.6979 10.5007 20.6397 10.5303C20.5813 10.5598 20.5268 10.5934 20.5184 10.6046C20.5101 10.616 20.4555 10.6516 20.3972 10.6837C20.3388 10.7156 20.2845 10.7486 20.2761 10.7569C20.1608 10.8719 19.9427 10.9513 19.9427 10.8784C19.9427 10.8621 19.9096 10.8403 19.8693 10.8302C19.8287 10.8202 19.7884 10.7926 19.7793 10.7693C19.7702 10.7459 19.7456 10.7266 19.7245 10.7266C19.6864 10.7266 20.0554 11.0764 20.1548 11.1346C20.203 11.1629 20.5424 11.4585 20.732 11.6374C20.7784 11.6811 20.8427 11.7355 20.8749 11.7582C20.9222 11.7916 21.12 11.9618 21.3798 12.1923C21.5406 12.3352 21.689 12.4008 21.7124 12.3397C21.7221 12.3147 21.7403 12.3007 21.7528 12.3085C21.7879 12.3301 21.7642 12.0581 21.7123 11.8396C21.6992 11.7843 21.687 11.7323 21.6852 11.7239C21.6835 11.7156 21.6595 11.6068 21.6319 11.4822C21.6043 11.3575 21.5745 11.2148 21.5657 11.1649C21.5392 11.0142 21.4996 10.8456 21.427 10.5756C21.3892 10.4342 21.3599 10.2873 21.3623 10.249C21.3645 10.2108 21.3541 10.1868 21.339 10.1961C21.3241 10.2053 21.3185 10.1872 21.3269 10.1558C21.335 10.1245 21.327 10.0896 21.3089 10.0786C21.2907 10.0673 21.276 10.0447 21.276 10.028C21.276 10.0113 21.289 10.0059 21.305 10.0157C21.3218 10.0262 21.3201 9.9919 21.3009 9.93442C21.2625 9.81983 21.2109 9.75056 21.2285 9.83741ZM19.5186 10.5631C19.5186 10.5807 19.5528 10.6271 19.5944 10.6663C19.636 10.7052 19.67 10.7274 19.67 10.7154C19.67 10.7036 19.636 10.6572 19.5944 10.6122C19.5528 10.5674 19.5186 10.5453 19.5186 10.5631ZM18.4582 11.6331C18.4582 11.6697 18.5431 11.7096 18.568 11.6848C18.5771 11.6757 18.556 11.6532 18.5213 11.6347C18.4775 11.6113 18.4582 11.6108 18.4582 11.6331ZM18.5902 11.7691C18.6016 11.7986 18.5634 11.8463 18.4798 11.9071C18.2873 12.0469 17.9797 12.2376 17.9468 12.2376C17.9308 12.2376 17.9132 12.248 17.9077 12.2603C17.9021 12.2728 17.843 12.3183 17.7765 12.3617C17.6363 12.4525 17.2178 12.7223 16.9684 12.8828C16.8739 12.9435 16.783 12.9932 16.7664 12.9932C16.7497 12.9932 16.7315 13.0034 16.7261 13.0159C16.7204 13.0284 16.6614 13.0739 16.5948 13.1171C16.303 13.3062 15.9447 13.5367 15.7768 13.6429C15.6768 13.7062 15.5199 13.8079 15.4283 13.8692C15.3366 13.9305 15.2479 13.9862 15.2314 13.9931C15.2147 14 15.0989 14.0725 14.9738 14.1541C14.8489 14.2357 14.6716 14.3499 14.5798 14.4079C14.4882 14.466 14.3382 14.5635 14.2466 14.6248C14.155 14.6859 14.0663 14.7418 14.0497 14.7487C14.033 14.7555 13.9205 14.8257 13.7998 14.9048C13.6789 14.9837 13.4813 15.1129 13.3604 15.1918C13.2395 15.2707 13.1271 15.3405 13.1104 15.3469C13.0937 15.3532 13.0597 15.3761 13.0346 15.3976C13.0095 15.4192 12.955 15.4551 12.9134 15.4774C12.8717 15.4995 12.7356 15.5842 12.6105 15.6653C12.4856 15.7463 12.3287 15.848 12.262 15.8914C12.1955 15.9347 12.1364 15.9802 12.1307 15.9927C12.1253 16.0051 12.1029 16.0154 12.0815 16.0154C12.0598 16.0154 12.0253 16.0357 12.0046 16.0607C11.8835 16.2062 11.8573 16.1173 11.8261 15.4562C11.8101 15.1168 11.8057 15.491 11.813 16.5594C11.8288 18.8835 11.8122 18.7464 12.0562 18.5893C12.1509 18.5282 12.3547 18.3968 12.5091 18.297C12.6634 18.1973 12.899 18.0477 13.0324 17.9647C13.166 17.8814 13.2757 17.8033 13.2762 17.7908C13.2768 17.7785 13.2918 17.7681 13.3098 17.7681C13.3407 17.7681 13.947 17.3859 14.0257 17.3168C14.0457 17.299 14.0708 17.2847 14.0812 17.2847C14.1095 17.2847 14.442 17.0626 14.4537 17.0359C14.4591 17.023 14.4762 17.0127 14.4915 17.0127C14.5191 17.0127 15.1381 16.6225 15.2074 16.5614C15.2274 16.5436 15.2525 16.5291 15.2628 16.5291C15.2912 16.5291 15.6237 16.3072 15.6353 16.2803C15.6408 16.2676 15.6584 16.2571 15.6742 16.2571C15.7002 16.2571 16.1194 15.9949 16.1554 15.9561C16.1832 15.9262 16.291 15.8627 16.3449 15.8448C16.3739 15.835 16.3978 15.815 16.3978 15.8004C16.3978 15.7857 16.4125 15.7735 16.4305 15.7735C16.4688 15.7735 16.8021 15.559 16.817 15.5249C16.8224 15.512 16.8417 15.5015 16.8595 15.5015C16.8773 15.5015 16.9368 15.4676 16.9913 15.4261C17.046 15.3846 17.0989 15.3505 17.1091 15.3505C17.128 15.3505 17.31 15.2281 17.3371 15.1973C17.3454 15.1877 17.3727 15.1708 17.3976 15.1595C17.4496 15.1363 17.557 15.0707 17.5794 15.0482C17.5878 15.0399 17.6423 15.0071 17.7007 14.975C17.759 14.943 17.8136 14.909 17.8219 14.8995C17.8508 14.8663 18.0315 14.7461 18.0526 14.7461C18.0642 14.7461 18.1184 14.712 18.173 14.6705C18.2277 14.629 18.2806 14.5949 18.2908 14.5949C18.3078 14.5949 18.4849 14.4776 18.5187 14.4438C18.5413 14.4214 18.6485 14.3557 18.7005 14.3325C18.7254 14.3215 18.7527 14.3044 18.761 14.295C18.7694 14.2854 18.824 14.2515 18.8823 14.2195C18.9407 14.1875 18.9952 14.1535 19.0036 14.1439C19.0325 14.1107 19.2132 13.9905 19.2343 13.9905C19.2459 13.9905 19.3001 13.9566 19.3546 13.9149C19.4093 13.8734 19.4622 13.8395 19.4724 13.8395C19.4913 13.8395 19.6735 13.7169 19.7004 13.6861C19.7087 13.6765 19.7633 13.6426 19.8216 13.6105C19.8798 13.5786 19.9343 13.5456 19.9427 13.5372C19.9734 13.5068 20.0807 13.4444 20.1321 13.427C20.1612 13.4174 20.1852 13.3994 20.1852 13.3874C20.1852 13.3755 20.2223 13.3486 20.2677 13.328C20.341 13.2948 20.3445 13.2872 20.2981 13.2612C20.2694 13.2451 20.2457 13.2123 20.2457 13.1882C20.2457 13.164 20.2252 13.1443 20.2003 13.1443C20.1752 13.1443 20.1543 13.1274 20.1534 13.1066C20.1527 13.0857 20.117 13.0416 20.0741 13.0083C20.0314 12.9751 19.9194 12.8775 19.8256 12.7914C19.7316 12.7055 19.5684 12.5559 19.4626 12.459C19.357 12.3622 19.2523 12.2726 19.2301 12.2601C19.2077 12.2474 19.1363 12.1863 19.071 12.1241C18.7023 11.7729 18.5478 11.6587 18.5902 11.7691ZM10.0676 17.1748C10.0656 17.253 9.91307 17.4338 9.84799 17.4352C9.83653 17.4356 9.80872 17.4528 9.78599 17.4735C9.76327 17.4943 9.718 17.5275 9.68546 17.5473C9.65274 17.567 9.51694 17.6524 9.38369 17.7371C9.25044 17.8218 9.11409 17.9076 9.08064 17.9279C9.04737 17.948 9.01338 17.9728 9.00502 17.983C8.99666 17.9931 8.94212 18.026 8.88376 18.0557C8.75651 18.1208 8.5998 18.2278 8.5858 18.2593C8.58035 18.2717 8.56526 18.282 8.55236 18.282C8.53272 18.282 8.17714 18.5025 8.07915 18.5754C8.00189 18.633 7.92535 18.6778 7.87627 18.6943C7.84718 18.7041 7.82337 18.7221 7.82337 18.7342C7.82337 18.7464 7.76883 18.7808 7.70212 18.8107C7.6354 18.8408 7.58086 18.8751 7.58086 18.8873C7.58086 18.8994 7.53996 18.9261 7.48996 18.9467C7.43997 18.9674 7.39907 18.9962 7.39907 19.0109C7.39907 19.0254 7.38743 19.0374 7.37325 19.0374C7.35162 19.0374 7.00149 19.2534 6.89751 19.331C6.82025 19.3886 6.74371 19.4334 6.69462 19.4499C6.66554 19.4595 6.64173 19.478 6.64173 19.4907C6.64173 19.5032 6.59955 19.531 6.5481 19.5524C6.49684 19.5736 6.43848 19.6059 6.41867 19.624C6.21651 19.809 6.08853 19.8274 6.002 19.6846C5.97509 19.6403 5.94546 19.6166 5.93583 19.6318C5.92637 19.647 5.97909 19.7252 6.0529 19.8053C6.12671 19.8857 6.18725 19.9633 6.18725 19.978C6.18725 19.9926 6.19779 20.0046 6.21051 20.0046C6.22342 20.0046 6.25942 20.0518 6.29068 20.1094C6.32177 20.1671 6.35904 20.2071 6.37322 20.1983C6.38758 20.1896 6.39958 20.2001 6.39976 20.2218C6.40012 20.2436 6.43412 20.2935 6.47557 20.3326C6.51684 20.3718 6.55119 20.4193 6.55156 20.4383C6.5521 20.4574 6.60319 20.529 6.66518 20.5975C6.72717 20.6661 6.79843 20.7528 6.82352 20.7901C6.84842 20.8276 6.88696 20.8768 6.90896 20.8998C6.93095 20.9227 6.94077 20.9413 6.93059 20.9413C6.92059 20.9413 6.95059 20.9789 6.99749 21.0246C7.04439 21.0703 7.08912 21.1212 7.09693 21.1379C7.10493 21.1544 7.12111 21.1647 7.13311 21.1607C7.14511 21.1568 7.1711 21.1838 7.19092 21.2206C7.21073 21.2576 7.24182 21.3045 7.26 21.325C7.35526 21.4326 7.38398 21.4706 7.38398 21.4897C7.38398 21.5011 7.39634 21.522 7.41161 21.5357C7.42743 21.5502 7.4307 21.5461 7.41925 21.5263C7.40834 21.5073 7.41889 21.4842 7.44288 21.4752C7.4667 21.4661 7.49033 21.4705 7.4956 21.4848C7.50087 21.4993 7.65521 21.4104 7.83846 21.2875C8.02171 21.1646 8.18768 21.0636 8.20713 21.063C8.22658 21.0626 8.24695 21.0518 8.25258 21.0391C8.25803 21.0262 8.33766 20.9671 8.42928 20.9076C8.88413 20.6124 8.96175 20.5627 8.98975 20.5486C9.00647 20.5401 9.09791 20.4822 9.19281 20.42C9.28788 20.3576 9.37878 20.3067 9.39478 20.3067C9.41096 20.3067 9.42859 20.2964 9.43423 20.2835C9.44386 20.2614 9.62511 20.1382 9.90634 19.9631C9.99287 19.9092 10.036 19.8608 10.0374 19.8153C10.0389 19.7781 10.0469 19.7647 10.0552 19.7856C10.0636 19.8066 10.0829 19.816 10.0979 19.8068C10.1323 19.7856 10.1292 17.2321 10.0947 17.1487C10.073 17.0965 10.0694 17.0999 10.0676 17.1748ZM5.61151 19.2584C5.61151 19.2637 5.65587 19.3079 5.71004 19.3567L5.80839 19.4454L5.71949 19.3473C5.6366 19.2557 5.61151 19.2351 5.61151 19.2584Z" fill="#FC5234"/>
<path d="M32.5918 17.4563H30.562V11.6606H32.5918V17.4563ZM37.5577 9.91166H25.5961V7.88188H37.5577V9.91166ZM51.447 15.0946C51.447 15.4223 51.3853 15.7286 51.2619 16.0138C51.1342 16.2989 50.964 16.5478 50.7513 16.7606C50.5342 16.9776 50.2811 17.1478 49.9917 17.2712C49.7023 17.3946 49.396 17.4563 49.0726 17.4563H41.8471C41.5194 17.4563 41.213 17.3946 40.9279 17.2712C40.6386 17.1478 40.3875 16.9776 40.1747 16.7606C39.9577 16.5478 39.7875 16.2989 39.6641 16.0138C39.5364 15.7286 39.4726 15.4223 39.4726 15.0946V7.88188H41.5024V15.0946C41.5024 15.184 41.5364 15.2627 41.6045 15.3308C41.6683 15.4031 41.7492 15.4393 41.8471 15.4393H49.0726C49.1704 15.4393 49.2534 15.4031 49.3215 15.3308C49.3853 15.2627 49.4172 15.184 49.4172 15.0946V7.88188H51.447V15.0946ZM65.3363 14.8776C65.3363 15.2308 65.2682 15.5627 65.132 15.8733C64.9959 16.1882 64.8108 16.4627 64.5767 16.6967C64.3384 16.9308 64.0618 17.1159 63.7469 17.252C63.4321 17.3882 63.098 17.4563 62.7448 17.4563H53.3619V11.6606H62.7448C62.8214 11.6606 62.8938 11.6457 62.9618 11.6159C63.0299 11.5861 63.0895 11.5457 63.1406 11.4946C63.1916 11.4436 63.2321 11.384 63.2618 11.3159C63.2916 11.2478 63.3065 11.1755 63.3065 11.0989V10.4734C63.3065 10.3968 63.2916 10.3244 63.2618 10.2563C63.2321 10.1883 63.1916 10.1287 63.1406 10.0776C63.0895 10.0266 63.0299 9.98613 62.9618 9.95634C62.8938 9.92655 62.8214 9.91166 62.7448 9.91166H53.3619V7.88188H62.7448C63.098 7.88188 63.4321 7.94997 63.7469 8.08614C64.0618 8.22231 64.3384 8.40741 64.5767 8.64145C64.8108 8.87975 64.9959 9.15634 65.132 9.47124C65.2682 9.78613 65.3363 10.1202 65.3363 10.4734V11.0989C65.3363 11.401 65.2895 11.684 65.1959 11.9478C65.098 12.2116 64.9661 12.4521 64.8001 12.6691C64.9661 12.8861 65.098 13.1287 65.1959 13.3967C65.2895 13.6648 65.3363 13.9457 65.3363 14.2393V14.8776ZM63.3065 14.2393C63.3065 14.167 63.2916 14.0967 63.2618 14.0287C63.2321 13.9648 63.1916 13.9074 63.1406 13.8563C63.0895 13.8053 63.0299 13.7648 62.9618 13.735C62.8938 13.7053 62.8214 13.6904 62.7448 13.6904H55.3917V15.4393H62.7448C62.8214 15.4393 62.8938 15.4244 62.9618 15.3946C63.0299 15.3648 63.0895 15.3244 63.1406 15.2733C63.1916 15.2223 63.2321 15.1627 63.2618 15.0946C63.2916 15.0265 63.3065 14.9542 63.3065 14.8776V14.2393ZM78.766 17.4563H69.7661C69.4214 17.4563 69.098 17.3903 68.7958 17.2584C68.4895 17.1265 68.2214 16.9478 67.9916 16.7223C67.7618 16.4967 67.581 16.2308 67.449 15.9244C67.3171 15.6223 67.2512 15.2989 67.2512 14.9542V7.88188H69.281V14.9542C69.281 15.0818 69.3278 15.1946 69.4214 15.2925C69.515 15.3904 69.6299 15.4393 69.7661 15.4393H78.766V17.4563ZM82.7107 17.4563H80.6809V7.88188H82.7107V17.4563ZM94.5702 11.6606V10.4223C94.5702 10.2819 94.5212 10.1606 94.4234 10.0585C94.3212 9.96059 94.2 9.91166 94.0595 9.91166H87.1532C87.017 9.91166 86.9 9.96059 86.8021 10.0585C86.7043 10.1606 86.6553 10.2819 86.6553 10.4223V11.6606H94.5702ZM96.6 17.4563H94.5702V13.6904H86.6553V17.4563H84.6256V10.4223C84.6256 10.0734 84.6915 9.74357 84.8234 9.43294C84.9553 9.12656 85.1362 8.85847 85.366 8.62869C85.5958 8.3989 85.8638 8.21592 86.1702 8.07975C86.4766 7.94784 86.8043 7.88188 87.1532 7.88188H94.0595C94.4085 7.88188 94.7383 7.94784 95.0489 8.07975C95.3553 8.21592 95.6234 8.3989 95.8532 8.62869C96.0829 8.85847 96.2659 9.12656 96.4021 9.43294C96.534 9.74357 96.6 10.0734 96.6 10.4223V17.4563ZM110.489 17.4563H108.459V10.4734C108.459 10.3968 108.445 10.3244 108.415 10.2563C108.385 10.1883 108.345 10.1287 108.294 10.0776C108.242 10.0266 108.183 9.98613 108.115 9.95634C108.047 9.92655 107.974 9.91166 107.898 9.91166H98.5148V7.88188H107.898C108.251 7.88188 108.585 7.94997 108.9 8.08614C109.215 8.22231 109.491 8.40741 109.73 8.64145C109.964 8.87975 110.149 9.15634 110.285 9.47124C110.421 9.78613 110.489 10.1202 110.489 10.4734V17.4563ZM100.545 17.4563H98.5148V11.6606H100.545V17.4563Z" fill="#FEFEFE"/>
</svg>
